<?xml version="1.0" encoding="UTF-8" standalone="no"?>
<!-- Created with Inkscape (http://www.inkscape.org/) -->

<svg
   width="3840"
   height="2160"
   viewBox="0 0 3840 2160"
   version="1.1"
   id="svg1"
   sodipodi:docname="ticket-bg.svg"
   inkscape:version="1.3 (0e150ed6c4, 2023-07-21)"
   xmlns:inkscape="http://www.inkscape.org/namespaces/inkscape"
   xmlns:sodipodi="http://sodipodi.sourceforge.net/DTD/sodipodi-0.dtd"
   xmlns="http://www.w3.org/2000/svg"
   xmlns:svg="http://www.w3.org/2000/svg">
  <sodipodi:namedview
     id="namedview1"
     pagecolor="#ffffff"
     bordercolor="#999999"
     borderopacity="1"
     inkscape:showpageshadow="2"
     inkscape:pageopacity="0"
     inkscape:pagecheckerboard="0"
     inkscape:deskcolor="#d1d1d1"
     inkscape:document-units="px"
     inkscape:zoom="0.4865042"
     inkscape:cx="2002.0382"
     inkscape:cy="761.55561"
     inkscape:window-width="1920"
     inkscape:window-height="1164"
     inkscape:window-x="-11"
     inkscape:window-y="-11"
     inkscape:window-maximized="1"
     inkscape:current-layer="layer1" />
  <defs
     id="defs1" />
  <g
     inkscape:label="Layer 1"
     inkscape:groupmode="layer"
     id="layer1">
    <g
       id="Plant"
       transform="matrix(4.5604116,0,0,4.5257332,1499.5797,144.7016)"
       style="stroke-width:0.220117">&#10;	<g
   id="g55"
   style="stroke-width:0.220117">&#10;		<g
   id="g50"
   style="stroke-width:0.220117">&#10;			<g
   id="g23"
   style="stroke-width:0.220117">&#10;				<path
   style="fill:#ffc727;stroke-width:0.220117"
   d="m 411.449,226.223 c 0,0 -23.593,-3.303 -18.078,-31.784 0,0 26.36,5.917 18.078,31.784 z"
   id="path19" />
&#10;				<path
   style="opacity:0.1;stroke-width:0.220117"
   d="m 411.449,226.223 c 0,0 -23.593,-3.303 -18.078,-31.784 0,0 26.36,5.917 18.078,31.784 z"
   id="path20" />
&#10;				<path
   style="fill:#263238;stroke-width:0.220117"
   d="m 410.256,220.277 c -0.461,-1.441 -1.004,-2.855 -1.607,-4.245 -0.018,-0.182 -0.045,-0.364 -0.061,-0.539 -0.035,-0.392 -0.067,-0.784 -0.098,-1.176 -0.066,-0.85 -0.12,-1.7 -0.17,-2.551 -0.1,-1.701 -0.209,-3.404 -0.235,-5.108 -10e-4,-0.093 -0.143,-0.089 -0.144,0.003 -0.015,1.706 -0.04,3.408 0.026,5.113 0.033,0.851 0.082,1.702 0.138,2.552 0.013,0.189 0.027,0.378 0.041,0.566 -1.319,-2.838 -2.915,-5.551 -4.73,-8.089 -0.81,-1.133 -1.663,-2.222 -2.58,-3.271 -0.94,-1.076 -1.934,-2.101 -2.886,-3.167 -0.061,-0.069 -0.164,0.037 -0.099,0.104 1.735,1.809 3.17,3.958 4.547,6.045 0.716,1.085 1.393,2.199 2.038,3.331 -0.073,-0.029 -0.147,-0.057 -0.219,-0.087 -0.28,-0.115 -0.559,-0.231 -0.841,-0.34 -0.641,-0.247 -1.283,-0.49 -1.926,-0.729 -1.266,-0.47 -2.534,-0.932 -3.795,-1.412 -0.076,-0.029 -0.128,0.103 -0.052,0.133 1.254,0.5 2.496,1.029 3.735,1.564 0.609,0.263 1.218,0.523 1.827,0.786 0.305,0.132 0.613,0.255 0.921,0.38 0.206,0.084 0.409,0.187 0.626,0.221 0.476,0.854 0.947,1.711 1.381,2.586 1.092,2.203 2.063,4.479 2.883,6.797 0.058,0.163 0.113,0.326 0.17,0.489 -0.583,-0.393 -1.326,-0.65 -1.933,-0.932 -0.812,-0.376 -1.629,-0.74 -2.442,-1.113 -1.654,-0.76 -3.299,-1.531 -4.884,-2.427 -0.081,-0.046 -0.151,0.082 -0.07,0.126 1.621,0.886 3.21,1.828 4.834,2.709 0.812,0.441 1.628,0.869 2.459,1.272 0.682,0.331 1.45,0.791 2.216,0.888 0.738,2.178 1.357,4.383 1.546,6.691 0.264,3.221 0.234,6.468 0.309,9.696 0.001,0.057 0.082,0.052 0.086,-0.002 0.235,-2.929 0.367,-5.884 0.381,-8.823 0.013,-2.79 -0.544,-5.39 -1.392,-8.041 z"
   id="path21" />
&#10;				<path
   style="fill:#263238;stroke-width:0.220117"
   d="m 406.624,203.529 c -0.185,1.658 -0.35,3.355 -0.235,5.023 0.003,0.047 0.069,0.044 0.072,-0.002 0.095,-1.666 0.11,-3.326 0.303,-4.986 0.01,-0.092 -0.13,-0.127 -0.14,-0.035 z"
   id="path22" />
&#10;				<path
   style="fill:#263238;stroke-width:0.220117"
   d="m 399.878,204.954 c -1.045,-0.443 -2.083,-0.859 -3.034,-1.49 -0.077,-0.051 -0.148,0.077 -0.07,0.126 0.953,0.594 1.972,1.174 3.065,1.464 0.057,0.015 0.096,-0.075 0.039,-0.1 z"
   id="path23" />
&#10;			</g>
&#10;			<path
   style="fill:#263238;stroke-width:0.220117"
   d="m 412.202,271.439 c -0.02,-2.608 -0.069,-5.214 -0.099,-7.821 -0.049,-8.658 -0.12,-17.316 -0.276,-25.975 -0.124,-6.874 -0.285,-13.744 -0.48,-20.617 -10e-4,-0.04 -0.027,-0.067 -0.06,-0.088 -0.009,-1.877 -0.018,-3.754 -0.03,-5.631 0,-0.048 -0.056,-0.07 -0.113,-0.07 -0.056,0.001 -0.113,0.025 -0.113,0.073 -0.012,1.88 -0.024,3.76 -0.035,5.641 -0.028,0.021 -0.053,0.045 -0.054,0.081 -0.347,12.232 -0.657,24.467 -0.729,36.702 -0.015,2.488 -0.013,4.975 -0.024,7.463 -0.083,7.977 -0.121,15.954 -0.091,23.932 -0.009,1.27 -0.024,2.54 -0.028,3.81 -0.026,7.298 0.076,14.597 0.078,21.895 0,0.393 0.436,0.588 0.9,0.607 0.529,0.021 1.093,-0.19 1.093,-0.638 0.003,-8.048 0.056,-16.097 0.055,-24.145 0.025,-5.074 0.044,-10.147 0.006,-15.219 z"
   id="path24" />
&#10;			<g
   id="g29"
   style="stroke-width:0.220117">&#10;				<path
   style="fill:#ffc727;stroke-width:0.220117"
   d="m 402.349,263.518 c 0,0 -11.347,-8.408 -22.117,-2.728 -10.771,5.68 -12.459,27.581 -12.459,27.581 0,0 15.815,2.262 25.775,-7.217 9.596,-9.135 8.801,-17.636 8.801,-17.636 z"
   id="path25" />
&#10;				<path
   style="opacity:0.1;stroke-width:0.220117"
   d="m 402.349,263.518 c 0,0 -11.347,-8.408 -22.117,-2.728 -10.771,5.68 -12.459,27.581 -12.459,27.581 0,0 15.815,2.262 25.775,-7.217 9.596,-9.135 8.801,-17.636 8.801,-17.636 z"
   id="path26" />
&#10;				<path
   style="fill:#263238;stroke-width:0.220117"
   d="m 405.442,264.037 c -2.054,-0.863 -4.34,-1.076 -6.574,-0.858 -0.452,-0.101 -0.932,-0.103 -1.391,-0.136 -0.533,-0.038 -1.066,-0.078 -1.599,-0.12 -1.102,-0.086 -2.206,-0.152 -3.309,-0.234 -2.239,-0.167 -4.484,-0.304 -6.718,-0.529 -0.08,-0.008 -0.096,0.132 -0.016,0.142 2.211,0.283 4.412,0.597 6.63,0.821 1.14,0.115 2.281,0.233 3.425,0.314 0.269,0.019 0.547,0.049 0.83,0.081 -0.339,0.076 -0.677,0.156 -1.007,0.25 -1.78,0.504 -3.495,1.226 -5.142,2.09 -0.894,0.16 -1.782,0.411 -2.659,0.617 -1.404,0.33 -2.802,0.693 -4.197,1.059 -2.755,0.722 -5.482,1.534 -8.217,2.33 -0.089,0.026 -0.048,0.16 0.042,0.138 2.733,-0.67 5.48,-1.285 8.217,-1.936 1.33,-0.317 2.663,-0.629 3.991,-0.956 0.343,-0.085 0.693,-0.163 1.043,-0.241 -3.056,1.881 -5.805,4.295 -8.066,7.013 -2.258,2.713 -4.056,5.682 -5.605,8.841 -0.04,0.081 0.075,0.16 0.121,0.078 1.835,-3.214 4.141,-6.24 6.784,-8.903 -0.05,0.151 -0.1,0.302 -0.148,0.453 -0.212,0.668 -0.421,1.336 -0.631,2.005 -0.42,1.336 -0.845,2.671 -1.244,4.014 -0.027,0.091 0.109,0.12 0.14,0.035 0.478,-1.295 0.932,-2.598 1.389,-3.9 0.224,-0.639 0.449,-1.278 0.673,-1.917 0.116,-0.331 0.228,-0.663 0.34,-0.996 0.034,-0.102 0.075,-0.203 0.109,-0.305 1.275,-1.232 2.615,-2.389 4.025,-3.43 1.861,-1.374 3.895,-2.534 6.024,-3.453 -0.039,0.197 -0.075,0.394 -0.115,0.581 -0.111,0.517 -0.227,1.034 -0.334,1.552 -0.222,1.074 -0.431,2.152 -0.64,3.228 -0.427,2.196 -0.692,4.42 -1.104,6.617 -0.017,0.09 0.119,0.126 0.14,0.035 0.509,-2.208 1.165,-4.382 1.657,-6.596 0.246,-1.107 0.496,-2.213 0.726,-3.324 0.107,-0.518 0.21,-1.038 0.315,-1.557 0.059,-0.289 0.126,-0.578 0.159,-0.869 0.206,-0.082 0.408,-0.177 0.616,-0.254 2.977,-1.102 6.268,-1.903 9.442,-1.293 3.036,0.583 5.638,2.62 6.83,5.473 0.103,0.247 0.493,0.093 0.435,-0.159 -0.617,-2.728 -2.894,-4.753 -5.387,-5.801 z"
   id="path27" />
&#10;				<path
   style="fill:#263238;stroke-width:0.220117"
   d="m 388.07,273.388 c -0.321,1.437 -0.64,2.876 -0.957,4.314 -0.303,1.373 -0.678,2.792 -0.793,4.196 -0.005,0.056 0.076,0.056 0.092,0.01 0.464,-1.352 0.688,-2.826 0.964,-4.226 0.28,-1.419 0.558,-2.839 0.834,-4.259 0.018,-0.091 -0.12,-0.126 -0.14,-0.035 z"
   id="path28" />
&#10;				<path
   style="fill:#263238;stroke-width:0.220117"
   d="m 377.095,277.043 c -1.445,0.733 -2.846,1.566 -4.355,2.166 -0.096,0.038 -0.035,0.177 0.059,0.13 1.453,-0.724 2.957,-1.366 4.33,-2.241 0.036,-0.022 0.003,-0.073 -0.034,-0.055 z"
   id="path29" />
&#10;			</g>
&#10;			<g
   id="g33"
   style="stroke-width:0.220117">&#10;				<path
   style="fill:#ffc727;stroke-width:0.220117"
   d="m 404.9,248.077 c 0,0 -13.869,0.885 -20.321,-8.261 -6.452,-9.146 -5.004,-22.206 -5.004,-22.206 0,0 14.568,1.77 20.354,8.338 5.786,6.567 4.971,22.129 4.971,22.129 z"
   id="path30" />
&#10;				<path
   style="fill:#263238;stroke-width:0.220117"
   d="m 411.41,261.763 c -0.48,-1.486 -1.075,-2.95 -1.636,-4.408 -0.539,-1.4 -1.115,-2.785 -1.725,-4.155 -1.246,-2.795 -2.621,-5.524 -4.157,-8.172 -0.978,-1.686 -2.027,-3.321 -3.107,-4.934 -0.022,-0.246 -0.071,-0.492 -0.108,-0.739 -0.065,-0.429 -0.126,-0.859 -0.193,-1.288 -0.138,-0.878 -0.291,-1.754 -0.438,-2.63 -0.319,-1.915 -0.714,-3.817 -1.019,-5.735 -0.014,-0.09 -0.158,-0.089 -0.144,0.003 0.28,1.892 0.47,3.796 0.735,5.69 0.13,0.93 0.252,1.862 0.393,2.791 0.051,0.336 0.105,0.671 0.158,1.007 -2.119,-3.087 -4.399,-6.059 -6.86,-8.899 -0.332,-0.383 -0.674,-0.756 -1.013,-1.133 -0.034,-0.106 -0.087,-0.209 -0.129,-0.317 -0.103,-0.264 -0.203,-0.528 -0.302,-0.794 -0.204,-0.55 -0.403,-1.102 -0.601,-1.654 -0.39,-1.086 -0.738,-2.182 -1.033,-3.298 -0.024,-0.09 -0.16,-0.048 -0.138,0.042 0.28,1.138 0.576,2.275 0.909,3.399 0.161,0.543 0.339,1.079 0.531,1.612 0.032,0.089 0.066,0.178 0.099,0.267 -1.773,-1.932 -3.622,-3.794 -5.49,-5.635 -0.066,-0.065 -0.164,0.038 -0.099,0.104 3.624,3.711 6.828,7.809 9.828,12.038 -0.339,-0.109 -0.686,-0.194 -1.027,-0.26 -1.068,-0.207 -2.145,-0.358 -3.223,-0.496 -2.26,-0.287 -4.513,-0.573 -6.764,-0.928 -0.09,-0.014 -0.127,0.122 -0.035,0.14 2.149,0.424 4.279,0.908 6.413,1.398 1.007,0.231 2.018,0.429 3.032,0.628 0.845,0.166 1.628,0.424 2.435,0.694 0.224,0.321 0.456,0.637 0.678,0.959 1.018,1.482 1.994,2.992 2.951,4.516 -0.471,-0.094 -0.943,-0.185 -1.415,-0.276 -1.071,-0.208 -2.146,-0.402 -3.223,-0.579 -2.116,-0.348 -4.233,-0.715 -6.323,-1.191 -0.09,-0.021 -0.125,0.119 -0.035,0.14 2.121,0.497 4.222,1.079 6.328,1.639 1.015,0.27 2.039,0.518 3.065,0.745 0.513,0.113 1.027,0.227 1.542,0.333 0.222,0.045 0.428,0.104 0.624,0.107 2.025,3.285 3.928,6.648 5.687,10.079 0.774,1.509 1.518,3.033 2.24,4.568 0.742,1.575 1.376,3.182 2.06,4.781 0.135,0.32 0.641,0.189 0.529,-0.159 z"
   id="path31" />
&#10;				<path
   style="fill:#263238;stroke-width:0.220117"
   d="m 397.214,229.887 c -0.265,-1.323 -0.544,-2.643 -0.837,-3.959 -0.02,-0.091 -0.156,-0.048 -0.138,0.041 0.263,1.3 0.513,2.602 0.749,3.907 0.234,1.294 0.422,2.621 0.787,3.886 0.007,0.023 0.044,0.018 0.042,-0.007 -0.069,-1.297 -0.348,-2.597 -0.603,-3.868 z"
   id="path32" />
&#10;				<path
   style="fill:#263238;stroke-width:0.220117"
   d="m 389.124,229.501 c -0.643,-0.32 -1.323,-0.58 -1.993,-0.839 -0.351,-0.136 -0.702,-0.272 -1.052,-0.412 -0.179,-0.071 -0.357,-0.143 -0.536,-0.214 -0.189,-0.076 -0.422,-0.134 -0.586,-0.257 -0.104,-0.078 -0.171,0.105 -0.067,0.122 0.205,0.034 0.405,0.158 0.593,0.243 0.175,0.079 0.35,0.157 0.525,0.235 0.337,0.15 0.675,0.302 1.012,0.451 0.669,0.296 1.35,0.593 2.048,0.811 0.083,0.025 0.132,-0.102 0.056,-0.14 z"
   id="path33" />
&#10;			</g>
&#10;			<g
   id="g38"
   style="stroke-width:0.220117">&#10;				<path
   style="fill:#ffc727;stroke-width:0.220117"
   d="m 419.097,237.172 c 0,0 8.395,-15.679 21.164,-18.107 12.769,-2.428 20.585,10.711 20.585,10.711 0,0 -9.314,11.895 -21.032,13.971 -11.719,2.076 -20.717,-6.575 -20.717,-6.575 z"
   id="path34" />
&#10;				<path
   style="fill:#263238;stroke-width:0.220117"
   d="m 448.819,226.092 c -3.309,-0.454 -6.697,-0.401 -10.015,0.119 0.191,-0.105 0.382,-0.21 0.569,-0.305 0.948,-0.481 1.89,-0.969 2.833,-1.459 1.961,-1.02 3.943,-2.106 5.996,-2.928 0.096,-0.038 0.037,-0.175 -0.059,-0.13 -1.998,0.931 -4.068,1.71 -6.072,2.631 -1.002,0.461 -1.988,0.941 -2.962,1.458 -0.63,0.334 -1.328,0.65 -1.947,1.049 -2.806,0.575 -5.545,1.467 -8.116,2.696 0.532,-0.579 1.066,-1.158 1.597,-1.738 1.19,-1.303 2.36,-2.671 3.668,-3.858 0.069,-0.062 -0.036,-0.161 -0.104,-0.099 -1.337,1.214 -2.747,2.337 -4.043,3.599 -0.629,0.612 -1.23,1.247 -1.817,1.9 -0.292,0.325 -0.585,0.662 -0.863,1.01 -5.553,3.018 -10.277,7.574 -13.393,13.081 -1.771,3.13 -3.007,6.515 -3.727,10.036 -0.018,0.088 0.109,0.138 0.136,0.047 1.753,-5.919 5.063,-11.481 9.387,-15.885 4.691,-4.778 10.617,-8.23 17.108,-9.898 3.854,-0.99 7.838,-1.335 11.807,-1.072 0.163,0.008 0.176,-0.233 0.017,-0.254 z"
   id="path35" />
&#10;				<path
   style="opacity:0.1;stroke-width:0.220117"
   d="m 460.848,229.777 c 0,0 -9.316,11.896 -21.037,13.97 -8.939,1.585 -16.292,-3.078 -19.278,-5.372 l -0.645,-1.06 c 0,0 6.045,-5.096 17.48,-8.035 11.437,-2.94 23.48,0.497 23.48,0.497 z"
   id="path36" />
&#10;				<path
   style="fill:#263238;stroke-width:0.220117"
   d="m 441.403,220.502 c -0.97,0.591 -1.934,1.18 -2.836,1.872 -0.888,0.681 -1.714,1.421 -2.463,2.253 -0.066,0.074 0.037,0.167 0.109,0.104 0.848,-0.736 1.7,-1.473 2.58,-2.17 0.864,-0.685 1.744,-1.363 2.686,-1.937 0.078,-0.048 0.003,-0.171 -0.076,-0.122 z"
   id="path37" />
&#10;				<path
   style="fill:#263238;stroke-width:0.220117"
   d="m 448.41,223.156 c -0.473,0.197 -0.956,0.368 -1.429,0.564 -0.474,0.197 -0.948,0.393 -1.421,0.59 -0.101,0.042 -0.054,0.207 0.05,0.165 0.475,-0.193 0.95,-0.385 1.425,-0.578 0.476,-0.193 0.941,-0.412 1.417,-0.604 0.085,-0.034 0.044,-0.173 -0.042,-0.137 z"
   id="path38" />
&#10;			</g>
&#10;			<g
   id="g44"
   style="stroke-width:0.220117">&#10;				<path
   style="fill:#ffc727;stroke-width:0.220117"
   d="m 417.422,256.904 c 0,0 2.243,15.553 13.938,20.994 11.695,5.441 25.954,0 25.954,0 0,0 -5.607,-33.651 -39.892,-20.994 z"
   id="path39" />
&#10;				<path
   style="opacity:0.1;stroke-width:0.220117"
   d="m 417.422,256.904 c 0,0 2.243,15.553 13.938,20.994 11.695,5.441 25.954,0 25.954,0 0,0 -5.607,-33.651 -39.892,-20.994 z"
   id="path40" />
&#10;				<path
   style="fill:#263238;stroke-width:0.220117"
   d="m 449.256,267.78 c -1.079,-0.123 -2.151,-0.307 -3.219,-0.502 -0.524,-0.096 -1.049,-0.194 -1.572,-0.297 -0.266,-0.052 -0.543,-0.116 -0.821,-0.164 -0.315,-0.294 -0.625,-0.592 -0.948,-0.877 -2.214,-1.951 -4.615,-3.68 -7.153,-5.185 -1.382,-0.819 -2.815,-1.553 -4.287,-2.203 0.073,0.003 0.147,0.007 0.22,0.01 1.283,0.055 2.566,0.108 3.85,0.167 2.568,0.119 5.133,0.176 7.699,0.342 0.092,0.006 0.088,-0.138 -0.004,-0.144 -2.575,-0.175 -5.136,-0.457 -7.707,-0.679 -1.247,-0.108 -2.494,-0.22 -3.741,-0.333 -0.642,-0.058 -1.284,-0.112 -1.927,-0.168 -0.165,-0.014 -0.329,-0.035 -0.494,-0.053 -0.667,-0.249 -1.339,-0.484 -2.018,-0.695 -3.198,-0.993 -6.629,-1.386 -9.906,-0.547 -2.943,0.753 -5.878,2.681 -6.64,5.783 -0.026,0.107 0.14,0.181 0.186,0.073 1.097,-2.592 3.974,-3.897 6.571,-4.436 1.746,-0.363 3.534,-0.343 5.296,-0.103 0.072,0.797 0.373,1.616 0.59,2.351 0.324,1.094 0.643,2.19 0.974,3.282 0.663,2.184 1.394,4.348 2.04,6.537 0.026,0.089 0.16,0.048 0.138,-0.042 -0.543,-2.182 -1.001,-4.386 -1.528,-6.572 -0.258,-1.074 -0.528,-2.145 -0.795,-3.217 -0.17,-0.687 -0.313,-1.499 -0.589,-2.211 1.028,0.18 2.045,0.424 3.035,0.715 1.796,0.528 3.568,1.184 5.3,1.942 0.172,1.109 0.419,2.208 0.673,3.301 0.32,1.373 0.677,2.733 1.111,4.075 0.028,0.085 0.149,0.046 0.131,-0.04 -0.017,-0.085 -0.035,-0.169 -0.052,-0.254 -10e-4,-0.002 -0.002,-0.002 -0.003,-0.004 -0.262,-1.272 -0.543,-2.54 -0.811,-3.81 -0.216,-1.024 -0.415,-2.053 -0.637,-3.076 1.453,0.652 2.881,1.366 4.263,2.159 0.028,0.317 0.106,0.641 0.151,0.93 0.085,0.533 0.181,1.065 0.279,1.596 0.22,1.2 0.459,2.396 0.747,3.582 0.554,2.283 1.175,4.566 2.011,6.763 -0.017,0.026 -0.024,0.061 0.002,0.09 0.022,0.026 0.044,0.052 0.066,0.078 0.05,0.059 0.133,-0.01 0.118,-0.073 -0.541,-2.305 -1.159,-4.59 -1.665,-6.904 -0.253,-1.155 -0.508,-2.31 -0.74,-3.469 -0.116,-0.579 -0.222,-1.16 -0.332,-1.741 -0.031,-0.163 -0.054,-0.341 -0.081,-0.52 1.579,0.934 3.107,1.945 4.554,3.037 2.495,1.884 4.886,4.035 6.971,6.364 0.083,0.093 0.249,-0.038 0.172,-0.139 -0.892,-1.172 -1.779,-2.318 -2.788,-3.401 -0.588,-0.63 -1.199,-1.239 -1.821,-1.836 0.064,0.011 0.131,0.023 0.194,0.034 0.548,0.092 1.097,0.174 1.647,0.247 1.082,0.145 2.167,0.251 3.251,0.374 0.095,0.014 0.131,-0.126 0.039,-0.137 z"
   id="path41" />
&#10;				<path
   style="fill:#263238;stroke-width:0.220117"
   d="m 441.036,273.054 v 0 c 0,0 0,-10e-4 0,0 -0.018,-0.135 -0.041,-0.27 -0.067,-0.404 -0.034,-0.172 -0.117,-0.337 -0.142,-0.509 0,-0.003 -0.003,-0.003 -0.004,-0.006 -0.241,-1.039 -0.444,-2.086 -0.632,-3.138 -0.013,-0.073 -0.13,-0.051 -0.127,0.02 0.05,1.389 0.394,2.767 0.889,4.06 0.016,0.041 0.09,0.037 0.083,-0.013 0.002,-0.003 10e-4,-0.006 0,-0.01 z"
   id="path42" />
&#10;				<path
   style="fill:#263238;stroke-width:0.220117"
   d="m 431.248,272.804 c -0.003,-0.043 -0.036,-0.064 -0.069,-0.066 -0.328,-1.377 -0.644,-2.755 -0.928,-4.142 -0.149,-0.729 -0.302,-1.457 -0.441,-2.188 -0.075,-0.393 -0.148,-0.787 -0.218,-1.182 -0.061,-0.34 -0.091,-0.703 -0.252,-1.011 -0.027,-0.053 -0.122,-0.04 -0.131,0.02 -0.097,0.653 0.172,1.445 0.293,2.087 0.143,0.759 0.291,1.518 0.458,2.272 0.339,1.534 0.724,3.063 1.157,4.573 0.024,0.085 0.161,0.066 0.155,-0.025 -0.009,-0.112 -0.017,-0.225 -0.024,-0.338 z"
   id="path43" />
&#10;				<path
   style="fill:#263238;stroke-width:0.220117"
   d="m 448.189,263.301 c -2.136,-0.293 -4.27,-0.602 -6.411,-0.861 -0.09,-0.011 -0.127,0.126 -0.035,0.14 2.133,0.315 4.273,0.58 6.411,0.861 0.091,0.011 0.127,-0.128 0.035,-0.14 z"
   id="path44" />
&#10;			</g>
&#10;			<g
   id="g49"
   style="stroke-width:0.220117">&#10;				<path
   style="fill:#ffc727;stroke-width:0.220117"
   d="m 411.43,220.427 c 0,0 -7.156,-31.397 26.579,-44.102 0,-10e-4 9.346,41.327 -26.579,44.102 z"
   id="path45" />
&#10;				<path
   style="fill:#263238;stroke-width:0.220117"
   d="m 418.712,202.62 c 0.127,-0.081 0.249,-0.158 0.362,-0.22 0.638,-0.351 1.271,-0.71 1.907,-1.066 l 3.913,-2.189 c 2.575,-1.44 5.116,-2.938 7.709,-4.348 0.082,-0.044 0.006,-0.167 -0.076,-0.122 -2.597,1.412 -5.239,2.734 -7.853,4.115 l -3.867,2.044 c -0.526,0.278 -1.053,0.556 -1.579,0.835 1.125,-2.134 2.327,-4.227 3.648,-6.241 1.763,-2.689 3.694,-5.251 5.706,-7.758 0.092,-0.115 -0.058,-0.263 -0.167,-0.159 -2.975,2.846 -5.551,6.103 -7.8,9.563 0.003,-0.11 0.005,-0.222 0.01,-0.327 0.038,-0.781 0.058,-1.562 0.07,-2.344 0.022,-1.532 -0.051,-3.067 -0.005,-4.598 0.003,-0.093 -0.14,-0.089 -0.144,0.004 -0.063,1.508 -0.244,3.012 -0.33,4.519 -0.043,0.753 -0.075,1.505 -0.098,2.258 -0.012,0.407 -0.051,0.871 -0.036,1.317 -0.695,1.105 -1.362,2.227 -1.993,3.364 -1.124,2.026 -2.13,4.147 -3.015,6.323 -0.034,-0.782 -0.081,-1.563 -0.127,-2.345 -0.101,-1.719 -0.311,-3.431 -0.383,-5.151 -0.004,-0.092 -0.146,-0.089 -0.144,0.003 0.036,1.72 -0.044,3.439 0.009,5.16 0.027,0.86 0.053,1.719 0.11,2.577 0.021,0.315 0.037,0.637 0.059,0.959 -1.075,2.818 -1.939,5.717 -2.548,8.628 -0.658,3.145 -0.925,6.295 -1.257,9.481 -0.002,0.023 0.034,0.022 0.036,-10e-4 0.296,-2.84 1.016,-5.709 1.79,-8.454 0.418,-1.482 0.857,-2.956 1.333,-4.419 1.404,-0.661 2.747,-1.486 4.103,-2.237 1.407,-0.78 2.823,-1.542 4.234,-2.316 2.813,-1.543 5.623,-3.115 8.528,-4.478 0.084,-0.039 0.007,-0.16 -0.076,-0.122 -2.942,1.332 -5.905,2.599 -8.793,4.049 -1.438,0.722 -2.852,1.494 -4.254,2.284 -1.171,0.66 -2.375,1.32 -3.494,2.079 0.328,-0.977 0.668,-1.95 1.042,-2.912 1.026,-2.638 2.183,-5.23 3.47,-7.755 z"
   id="path46" />
&#10;				<path
   style="fill:#263238;stroke-width:0.220117"
   d="m 415.869,195.442 c -0.007,-0.092 -0.15,-0.089 -0.144,0.004 0.121,1.791 0.181,3.581 0.372,5.367 0.011,0.1 0.162,0.099 0.158,-0.004 -0.063,-1.795 -0.255,-3.576 -0.386,-5.367 z"
   id="path47" />
&#10;				<path
   style="fill:#263238;stroke-width:0.220117"
   d="m 432.042,201.438 c -2.113,0.85 -4.242,1.657 -6.342,2.537 -0.059,0.025 -0.033,0.12 0.029,0.097 2.132,-0.798 4.235,-1.668 6.355,-2.495 0.086,-0.035 0.044,-0.174 -0.042,-0.139 z"
   id="path48" />
&#10;				<path
   style="fill:#263238;stroke-width:0.220117"
   d="m 435.248,186.957 c -2.064,0.957 -4.066,2.016 -5.999,3.218 -0.098,0.061 -0.006,0.212 0.095,0.153 1.957,-1.144 3.949,-2.242 5.98,-3.249 0.083,-0.041 0.007,-0.16 -0.076,-0.122 z"
   id="path49" />
&#10;			</g>
&#10;		</g>
&#10;		<g
   id="g54"
   style="stroke-width:0.220117">&#10;			<rect
   x="386.08899"
   y="288.32199"
   style="fill:#455a64;stroke-width:0.220117"
   width="48.650002"
   height="51.279999"
   id="rect50" />
&#10;			<rect
   x="382.741"
   y="306.466"
   style="fill:#263238;stroke-width:0.220117"
   width="2.4890001"
   height="87.835999"
   id="rect51" />
&#10;			<rect
   x="435.336"
   y="306.466"
   style="fill:#263238;stroke-width:0.220117"
   width="2.4890001"
   height="87.835999"
   id="rect52" />
&#10;			<rect
   x="410.36301"
   y="306.466"
   style="fill:#263238;stroke-width:0.220117"
   width="2.4890001"
   height="87.835999"
   id="rect53" />
&#10;			<rect
   x="383.98499"
   y="336.314"
   style="fill:#263238;stroke-width:0.220117"
   width="52.595001"
   height="7.0999999"
   id="rect54" />
&#10;		</g>
&#10;	</g>
&#10;</g>
    <g
       id="Background_Complete"
       transform="matrix(5.4273885,0,0,5.1838631,155.07292,-273.95319)"
       style="stroke-width:0.188529">&#10;	<g
   id="g12"
   style="stroke-width:0.188529">&#10;		<g
   id="g2"
   style="stroke-width:0.188529">&#10;			<path
   style="fill:#ebebeb;stroke-width:0.188529"
   d="m 80.207,294.89 -13.125,0.279 -6.661,0.112 c -2.226,0.047 -4.463,0.037 -6.695,0.055 l -0.444,0.004 -0.002,-0.449 -0.054,-11.19 -0.002,-0.502 0.502,0.002 13.24,0.063 c 4.413,0.005 8.827,0.112 13.24,0.164 l 0.276,0.003 -0.003,0.27 c -0.019,1.899 -0.086,3.787 -0.131,5.654 z m 0,0 -0.142,-5.654 c -0.045,-1.863 -0.112,-3.705 -0.131,-5.536 l 0.273,0.273 c -4.413,0.051 -8.827,0.159 -13.24,0.164 l -13.24,0.063 0.499,-0.499 -0.054,11.19 -0.446,-0.446 c 2.182,0.018 4.358,0.008 6.546,0.055 l 6.579,0.112 z"
   id="path1" />
&#10;		</g>
&#10;		<g
   id="g3"
   style="stroke-width:0.188529">&#10;			<path
   style="fill:#ebebeb;stroke-width:0.188529"
   d="m 65.436,308.999 -13.125,0.279 -6.661,0.112 c -2.226,0.047 -4.463,0.037 -6.695,0.055 l -0.444,0.004 -0.002,-0.449 -0.054,-11.19 -0.002,-0.502 0.502,0.002 13.24,0.063 c 4.413,0.005 8.827,0.113 13.24,0.164 l 0.276,0.003 -0.003,0.27 c -0.019,1.899 -0.086,3.787 -0.131,5.654 z m 0,0 -0.142,-5.654 c -0.045,-1.863 -0.112,-3.705 -0.131,-5.536 l 0.273,0.273 c -4.413,0.051 -8.827,0.159 -13.24,0.164 l -13.24,0.063 0.499,-0.499 -0.054,11.19 -0.446,-0.446 c 2.182,0.018 4.358,0.008 6.546,0.055 l 6.579,0.112 z"
   id="path2" />
&#10;		</g>
&#10;		<g
   id="g4"
   style="stroke-width:0.188529">&#10;			<path
   style="fill:#ebebeb;stroke-width:0.188529"
   d="m 94.979,308.999 -13.125,0.279 -6.661,0.112 c -2.226,0.047 -4.463,0.037 -6.695,0.055 l -0.444,0.004 -0.002,-0.449 -0.054,-11.19 -0.002,-0.502 0.502,0.002 13.24,0.063 c 4.413,0.005 8.827,0.113 13.24,0.164 l 0.276,0.003 -0.003,0.27 c -0.019,1.899 -0.086,3.787 -0.131,5.654 z m 0,0 -0.142,-5.654 c -0.045,-1.863 -0.112,-3.705 -0.131,-5.536 l 0.273,0.273 c -4.413,0.051 -8.827,0.159 -13.24,0.164 l -13.24,0.063 0.499,-0.499 -0.054,11.19 -0.446,-0.446 c 2.182,0.018 4.358,0.008 6.546,0.055 l 6.579,0.112 z"
   id="path3" />
&#10;		</g>
&#10;		<g
   id="g5"
   style="stroke-width:0.188529">&#10;			<path
   style="fill:#ebebeb;stroke-width:0.188529"
   d="m 446.273,308.999 -13.125,0.279 -6.661,0.112 c -2.226,0.047 -4.463,0.037 -6.695,0.055 l -0.444,0.004 -0.002,-0.449 -0.054,-11.19 -0.003,-0.502 0.502,0.002 13.24,0.063 c 4.413,0.005 8.827,0.113 13.24,0.164 l 0.276,0.003 -0.003,0.27 c -0.019,1.899 -0.086,3.787 -0.131,5.654 z m 0,0 -0.142,-5.654 c -0.045,-1.863 -0.112,-3.705 -0.131,-5.536 l 0.273,0.273 c -4.413,0.051 -8.827,0.159 -13.24,0.164 l -13.24,0.063 0.499,-0.499 -0.054,11.19 -0.446,-0.446 c 2.182,0.018 4.358,0.008 6.546,0.055 l 6.579,0.112 z"
   id="path4" />
&#10;		</g>
&#10;		<g
   id="g6"
   style="stroke-width:0.188529">&#10;			<path
   style="fill:#ebebeb;stroke-width:0.188529"
   d="m 446.273,57.765 -13.125,0.279 -6.661,0.112 c -2.226,0.047 -4.463,0.037 -6.695,0.055 l -0.444,0.004 -0.002,-0.449 -0.054,-11.19 -0.003,-0.502 0.502,0.002 13.24,0.063 c 4.413,0.005 8.827,0.112 13.24,0.164 l 0.276,0.003 -0.003,0.27 c -0.019,1.899 -0.086,3.787 -0.131,5.654 z m 0,0 -0.142,-5.654 C 446.086,50.248 446.019,48.406 446,46.575 l 0.273,0.273 c -4.413,0.051 -8.827,0.159 -13.24,0.164 l -13.24,0.063 0.499,-0.499 -0.054,11.19 -0.446,-0.446 c 2.182,0.018 4.358,0.008 6.546,0.055 l 6.579,0.112 z"
   id="path5" />
&#10;		</g>
&#10;		<g
   id="g7"
   style="stroke-width:0.188529">&#10;			<path
   style="fill:#ebebeb;stroke-width:0.188529"
   d="m 461.045,71.875 -13.125,0.279 -6.661,0.112 c -2.226,0.047 -4.463,0.037 -6.695,0.055 l -0.444,0.004 -0.002,-0.449 -0.054,-11.19 -0.002,-0.502 0.502,0.002 13.24,0.063 c 4.413,0.005 8.827,0.112 13.24,0.164 l 0.276,0.003 -0.003,0.27 c -0.019,1.899 -0.086,3.787 -0.131,5.654 z m 0,0 -0.142,-5.654 c -0.045,-1.863 -0.112,-3.705 -0.131,-5.536 l 0.273,0.273 c -4.413,0.051 -8.827,0.159 -13.24,0.164 l -13.24,0.063 0.499,-0.499 -0.054,11.19 -0.446,-0.446 c 2.182,0.018 4.358,0.008 6.546,0.055 l 6.579,0.112 z"
   id="path6" />
&#10;		</g>
&#10;		<g
   id="g8"
   style="stroke-width:0.188529">&#10;			<path
   style="fill:#ebebeb;stroke-width:0.188529"
   d="m 65.436,57.777 -13.125,0.279 -6.661,0.112 c -2.226,0.047 -4.463,0.037 -6.695,0.055 l -0.444,0.004 -0.002,-0.449 -0.054,-11.19 -0.002,-0.502 0.502,0.002 13.24,0.063 c 4.413,0.005 8.827,0.112 13.24,0.164 l 0.276,0.003 -0.003,0.27 c -0.019,1.899 -0.086,3.787 -0.131,5.654 z m 0,0 -0.142,-5.654 C 65.249,50.26 65.182,48.418 65.163,46.587 l 0.273,0.273 c -4.413,0.051 -8.827,0.159 -13.24,0.164 l -13.24,0.063 0.499,-0.499 -0.054,11.19 -0.446,-0.446 c 2.182,0.018 4.358,0.008 6.546,0.055 l 6.579,0.112 z"
   id="path7" />
&#10;		</g>
&#10;		<g
   id="g9"
   style="stroke-width:0.188529">&#10;			<path
   style="fill:#ebebeb;stroke-width:0.188529"
   d="m 126.484,145.223 13.125,-0.279 6.661,-0.112 c 2.226,-0.047 4.463,-0.037 6.695,-0.055 l 0.444,-0.004 0.002,0.449 0.054,11.19 0.002,0.502 -0.502,-0.002 -13.24,-0.063 c -4.413,-0.005 -8.827,-0.113 -13.24,-0.164 l -0.276,-0.003 0.003,-0.27 c 0.019,-1.899 0.086,-3.787 0.131,-5.654 z m 0,0 0.142,5.654 c 0.045,1.863 0.112,3.705 0.131,5.536 l -0.273,-0.273 c 4.413,-0.051 8.827,-0.159 13.24,-0.164 l 13.24,-0.063 -0.499,0.499 0.054,-11.19 0.446,0.446 c -2.182,-0.018 -4.358,-0.008 -6.546,-0.055 l -6.579,-0.112 z"
   id="path8" />
&#10;		</g>
&#10;		<g
   id="g10"
   style="stroke-width:0.188529">&#10;			<path
   style="fill:#ebebeb;stroke-width:0.188529"
   d="m 372.427,192.524 13.125,-0.279 6.661,-0.112 c 2.225,-0.047 4.463,-0.037 6.695,-0.055 l 0.444,-0.003 0.002,0.449 0.054,11.19 0.003,0.502 -0.502,-0.002 -13.24,-0.063 c -4.413,-0.005 -8.827,-0.113 -13.24,-0.164 l -0.276,-0.003 0.003,-0.27 c 0.019,-1.899 0.086,-3.787 0.131,-5.654 z m 0,0 0.142,5.654 c 0.045,1.863 0.112,3.705 0.131,5.536 l -0.273,-0.273 c 4.413,-0.051 8.827,-0.159 13.24,-0.164 l 13.24,-0.063 -0.499,0.499 0.054,-11.19 0.446,0.446 c -2.182,-0.018 -4.358,-0.008 -6.546,-0.055 l -6.579,-0.112 z"
   id="path9" />
&#10;		</g>
&#10;		<g
   id="g11"
   style="stroke-width:0.188529">&#10;			<path
   style="fill:#ebebeb;stroke-width:0.188529"
   d="m 141.256,131.113 13.125,-0.279 6.661,-0.112 c 2.226,-0.047 4.463,-0.037 6.695,-0.055 l 0.444,-0.004 0.002,0.449 0.054,11.19 0.002,0.502 -0.502,-0.002 -13.24,-0.063 c -4.413,-0.005 -8.827,-0.113 -13.24,-0.164 l -0.276,-0.003 0.003,-0.27 c 0.019,-1.899 0.086,-3.787 0.131,-5.654 z m 0,0 0.142,5.654 c 0.045,1.863 0.112,3.705 0.131,5.536 l -0.273,-0.273 c 4.413,-0.051 8.827,-0.159 13.24,-0.164 l 13.24,-0.063 -0.499,0.499 0.054,-11.19 0.446,0.446 c -2.182,-0.018 -4.358,-0.008 -6.546,-0.055 l -6.579,-0.112 z"
   id="path10" />
&#10;		</g>
&#10;	</g>
&#10;	<g
   id="g18"
   style="stroke-width:0.188529">&#10;		<g
   id="g14"
   style="stroke-width:0.188529">&#10;			<line
   style="fill:none;stroke:#c7c7c7;stroke-width:0.188529;stroke-miterlimit:10"
   x1="77.841003"
   y1="97.577003"
   x2="77.841003"
   y2="0"
   id="line11" />
&#10;			<g
   id="g13"
   style="stroke-width:0.188529">&#10;				<polygon
   style="fill:#ebebeb;stroke-width:0.188529"
   points="70.491,111.873 85.19,111.873 111.723,130.238 108.998,136.229 46.675,136.229 43.958,130.238 "
   id="polygon11" />
&#10;				<polygon
   style="fill:#dbdbdb;stroke-width:0.188529"
   points="87.031,94.178 85.19,111.873 70.491,111.873 68.65,94.178 "
   id="polygon12" />
&#10;				<polygon
   style="fill:#dbdbdb;stroke-width:0.188529"
   points="111.72,130.241 108.995,136.232 46.672,136.232 43.955,130.241 "
   id="polygon13" />
&#10;			</g>
&#10;		</g>
&#10;		<g
   id="g17"
   style="stroke-width:0.188529">&#10;			<line
   style="fill:none;stroke:#c7c7c7;stroke-width:0.188529;stroke-miterlimit:10"
   x1="150.592"
   y1="78.25"
   x2="150.592"
   y2="0"
   id="line14" />
&#10;			<g
   id="g16"
   style="stroke-width:0.188529">&#10;				<polygon
   style="fill:#ebebeb;stroke-width:0.188529"
   points="143.243,92.545 157.942,92.545 184.475,110.911 181.75,116.902 119.427,116.902 116.71,110.911 "
   id="polygon14" />
&#10;				<polygon
   style="fill:#dbdbdb;stroke-width:0.188529"
   points="159.783,74.851 157.942,92.545 143.243,92.545 141.402,74.851 "
   id="polygon15" />
&#10;				<polygon
   style="fill:#dbdbdb;stroke-width:0.188529"
   points="184.472,110.913 181.747,116.904 119.424,116.904 116.707,110.913 "
   id="polygon16" />
&#10;			</g>
&#10;		</g>
&#10;	</g>
&#10;</g>
    <g
       id="Floor"
       transform="matrix(8.872003,0,0,-8.9366937,-297.99631,5455.2563)"
       style="stroke-width:0.112307">&#10;	<g
   id="g19"
   style="stroke-width:0.112307">&#10;		<polygon
   style="fill:#263238;stroke-width:0.112307"
   points="408.136,394.058 460.848,394.302 408.136,394.547 355.424,394.635 250,394.801 144.576,394.634 91.864,394.546 39.151,394.302 91.864,394.059 144.576,393.971 250,393.803 355.424,393.97 "
   id="polygon18" />
&#10;	</g>
&#10;</g>
    <g
       id="Suitcase"
       transform="matrix(4.4408848,0,0,4.4021896,-37.384386,-63.986032)"
       style="stroke-width:0.226168">&#10;	<g
   id="g458"
   style="stroke-width:0.226168">&#10;		<g
   id="g423"
   style="stroke-width:0.226168">&#10;			&#10;				<rect
   x="106.257"
   y="259.93201"
   transform="rotate(180,108.1938,288.82805)"
   style="fill:#dbdbdb;stroke-width:0.226168"
   width="3.8740001"
   height="57.792"
   id="rect419" />
&#10;			&#10;				<rect
   x="67.753998"
   y="259.93201"
   transform="rotate(180,69.6917,288.82805)"
   style="fill:#dbdbdb;stroke-width:0.226168"
   width="3.8740001"
   height="57.792"
   id="rect420" />
&#10;			<g
   id="g422"
   style="stroke-width:0.226168">&#10;				&#10;					<rect
   x="104.735"
   y="255.577"
   transform="rotate(180,108.0934,260.0327)"
   style="fill:#263238;stroke-width:0.226168"
   width="6.7179999"
   height="8.9110003"
   id="rect421" />
&#10;				&#10;					<rect
   x="66.333"
   y="255.577"
   transform="rotate(180,69.6917,260.0327)"
   style="fill:#263238;stroke-width:0.226168"
   width="6.7179999"
   height="8.9110003"
   id="rect422" />
&#10;				<polygon
   style="fill:#263238;stroke-width:0.226168"
   points="101.828,260.036 111.449,260.036 111.449,253.317 101.828,253.317 99.94,254.662 77.85,254.662 75.963,253.317 66.333,253.317 66.333,260.036 75.963,260.036 77.85,261.382 99.94,261.382 "
   id="polygon422" />
&#10;			</g>
&#10;		</g>
&#10;		<g
   id="g432"
   style="stroke-width:0.226168">&#10;			&#10;				<rect
   x="46.518002"
   y="317.724"
   transform="rotate(180,88.9428,377.9407)"
   style="fill:#ffc727;stroke-width:0.226168"
   width="84.849998"
   height="120.434"
   id="rect423" />
&#10;			&#10;				<rect
   x="46.518002"
   y="317.724"
   transform="rotate(180,88.9428,377.9407)"
   style="opacity:0.1;stroke-width:0.226168"
   width="84.849998"
   height="120.434"
   id="rect424" />
&#10;			&#10;				<rect
   x="55.827999"
   y="327.04199"
   transform="rotate(180,88.94275,377.9407)"
   style="fill:#ffc727;stroke-width:0.226168"
   width="66.228996"
   height="101.797"
   id="rect425" />
&#10;			<g
   style="opacity:0.1;stroke-width:0.226168"
   id="g431">&#10;				<path
   d="m 114.805,331.375 c -0.18,7.761 -0.265,15.522 -0.335,23.283 l -0.102,23.283 0.1,23.283 0.122,11.641 0.214,11.641 0.214,-11.641 0.122,-11.641 0.1,-23.283 -0.102,-23.283 c -0.069,-7.761 -0.153,-15.522 -0.333,-23.283 z"
   id="path425"
   style="stroke-width:0.226168" />
&#10;				<path
   d="m 106.232,331.375 c -0.18,7.761 -0.265,15.522 -0.335,23.283 l -0.102,23.283 0.1,23.283 0.122,11.641 0.214,11.641 0.214,-11.641 0.122,-11.641 0.1,-23.283 -0.102,-23.283 c -0.068,-7.761 -0.152,-15.522 -0.333,-23.283 z"
   id="path426"
   style="stroke-width:0.226168" />
&#10;				<path
   d="m 97.66,331.375 c -0.18,7.761 -0.265,15.522 -0.335,23.283 l -0.102,23.283 0.1,23.283 0.122,11.641 0.214,11.641 0.214,-11.641 0.122,-11.641 0.1,-23.283 -0.102,-23.283 C 97.925,346.897 97.84,339.136 97.66,331.375 Z"
   id="path427"
   style="stroke-width:0.226168" />
&#10;				<path
   d="m 89.088,331.375 c -0.18,7.761 -0.265,15.522 -0.335,23.283 l -0.102,23.283 0.1,23.283 0.122,11.641 0.214,11.641 0.214,-11.641 0.122,-11.641 0.1,-23.283 -0.102,-23.283 c -0.068,-7.761 -0.153,-15.522 -0.333,-23.283 z"
   id="path428"
   style="stroke-width:0.226168" />
&#10;				<path
   d="m 80.516,331.375 c -0.18,7.761 -0.265,15.522 -0.334,23.283 l -0.102,23.283 0.1,23.283 0.122,11.641 0.214,11.641 0.214,-11.641 0.122,-11.641 0.1,-23.283 -0.102,-23.283 c -0.07,-7.761 -0.154,-15.522 -0.334,-23.283 z"
   id="path429"
   style="stroke-width:0.226168" />
&#10;				<path
   d="m 71.944,331.375 c -0.18,7.761 -0.265,15.522 -0.335,23.283 l -0.102,23.283 0.1,23.283 0.122,11.641 0.214,11.641 0.214,-11.641 0.122,-11.641 0.1,-23.283 -0.102,-23.283 c -0.069,-7.761 -0.153,-15.522 -0.333,-23.283 z"
   id="path430"
   style="stroke-width:0.226168" />
&#10;				<path
   d="m 63.371,331.375 c -0.18,7.761 -0.264,15.522 -0.334,23.283 l -0.102,23.283 0.1,23.283 0.122,11.641 0.214,11.641 0.214,-11.641 0.122,-11.641 0.1,-23.283 -0.102,-23.283 c -0.069,-7.761 -0.153,-15.522 -0.334,-23.283 z"
   id="path431"
   style="stroke-width:0.226168" />
&#10;			</g>
&#10;			<polygon
   style="fill:#263238;stroke-width:0.226168"
   points="131.368,428.886 115.386,428.886 108.993,438.158 131.368,438.158 "
   id="polygon431" />
&#10;			<polygon
   style="fill:#263238;stroke-width:0.226168"
   points="46.518,428.886 62.5,428.886 68.893,438.158 46.518,438.158 "
   id="polygon432" />
&#10;		</g>
&#10;		<polygon
   style="fill:#263238;stroke-width:0.226168"
   points="131.368,333.86 131.368,345.598 135.826,344.724 135.826,334.734 "
   id="polygon433" />
&#10;		<polygon
   style="fill:#263238;stroke-width:0.226168"
   points="131.368,410.283 131.368,422.021 135.826,421.147 135.826,411.157 "
   id="polygon434" />
&#10;		<g
   id="g437"
   style="stroke-width:0.226168">&#10;			<path
   style="fill:#263238;stroke-width:0.226168"
   d="m 39.151,377.941 c 0,18.306 4.457,29.544 4.457,29.544 h 2.91 V 390.533 H 42.83 v -25.184 h 3.688 v -16.952 h -2.91 c 0,0 -4.457,11.237 -4.457,29.544 z"
   id="path434" />
&#10;			<g
   id="g436"
   style="stroke-width:0.226168">&#10;				<path
   style="fill:#dbdbdb;stroke-width:0.226168"
   d="m 41.808,401.411 c 0.952,3.932 1.8,6.073 1.8,6.073 h 2.91 v -6.073 z"
   id="path435" />
&#10;				<path
   style="fill:#dbdbdb;stroke-width:0.226168"
   d="m 41.808,354.47 h 4.71 v -6.073 h -2.91 c 0,0 -0.848,2.141 -1.8,6.073 z"
   id="path436" />
&#10;			</g>
&#10;		</g>
&#10;		<g
   id="g438"
   style="stroke-width:0.226168">&#10;			<path
   style="fill:#263238;stroke-width:0.226168"
   d="m 88.506,311.231 c -18.307,0 -22.553,4.457 -22.553,4.457 v 2.036 h 10.836 v -2.814 h 23.436 v 2.814 h 11.709 v -2.036 c -10e-4,0 -5.122,-4.457 -23.428,-4.457 z"
   id="path437" />
&#10;		</g>
&#10;		<g
   id="g447"
   style="stroke-width:0.226168">&#10;			<polygon
   style="fill:#263238;stroke-width:0.226168"
   points="125.259,445.594 127.881,438.158 119.345,438.158 121.787,441.876 121.306,445.594 "
   id="polygon438" />
&#10;			<g
   id="g446"
   style="stroke-width:0.226168">&#10;				<path
   style="fill:#263238;stroke-width:0.226168"
   d="m 117.638,447.846 c 0,3.009 2.439,5.448 5.448,5.448 3.009,0 5.448,-2.439 5.448,-5.448 0,-3.009 -2.439,-5.449 -5.448,-5.449 -3.009,0.001 -5.448,2.44 -5.448,5.449 z"
   id="path438" />
&#10;				<g
   id="g445"
   style="stroke-width:0.226168">&#10;					<circle
   style="fill:#dbdbdb;stroke-width:0.226168"
   cx="123.086"
   cy="447.84601"
   r="2.9779999"
   id="circle438" />
&#10;					<g
   id="g444"
   style="stroke-width:0.226168">&#10;						<path
   style="fill:#263238;stroke-width:0.226168"
   d="m 123.026,446.042 c 0,0.428 0.052,0.775 0.115,0.775 0.064,0 0.115,-0.347 0.115,-0.775 0,-0.428 -0.051,-0.775 -0.115,-0.775 -0.064,0 -0.115,0.347 -0.115,0.775 z"
   id="path439" />
&#10;						<path
   style="fill:#263238;stroke-width:0.226168"
   d="m 124.319,446.528 c -0.302,0.303 -0.511,0.584 -0.467,0.629 0.045,0.045 0.327,-0.164 0.629,-0.467 0.303,-0.303 0.512,-0.584 0.467,-0.629 -0.045,-0.045 -0.326,0.164 -0.629,0.467 z"
   id="path440" />
&#10;						<ellipse
   style="fill:#263238;stroke-width:0.226168"
   cx="124.89"
   cy="447.901"
   rx="0.77499998"
   ry="0.115"
   id="ellipse440" />
&#10;						<path
   style="fill:#263238;stroke-width:0.226168"
   d="m 124.405,449.079 c -0.302,-0.303 -0.584,-0.512 -0.629,-0.467 -0.045,0.045 0.164,0.327 0.467,0.629 0.302,0.303 0.584,0.512 0.629,0.467 0.044,-0.044 -0.165,-0.326 -0.467,-0.629 z"
   id="path441" />
&#10;						<ellipse
   style="fill:#263238;stroke-width:0.226168"
   cx="123.032"
   cy="449.64999"
   rx="0.115"
   ry="0.77499998"
   id="ellipse441" />
&#10;						<path
   style="fill:#263238;stroke-width:0.226168"
   d="m 121.853,449.165 c 0.303,-0.303 0.511,-0.584 0.467,-0.629 -0.045,-0.045 -0.327,0.164 -0.629,0.467 -0.303,0.303 -0.512,0.584 -0.467,0.629 0.045,0.044 0.327,-0.165 0.629,-0.467 z"
   id="path442" />
&#10;						<path
   style="fill:#263238;stroke-width:0.226168"
   d="m 121.282,447.907 c 0.428,0 0.775,-0.052 0.775,-0.115 0,-0.064 -0.347,-0.115 -0.775,-0.115 -0.428,0 -0.775,0.052 -0.775,0.115 0,0.063 0.347,0.115 0.775,0.115 z"
   id="path443" />
&#10;						<path
   style="fill:#263238;stroke-width:0.226168"
   d="m 121.768,446.613 c 0.303,0.303 0.584,0.512 0.629,0.467 0.045,-0.045 -0.164,-0.327 -0.467,-0.629 -0.303,-0.303 -0.584,-0.512 -0.629,-0.467 -0.045,0.045 0.164,0.327 0.467,0.629 z"
   id="path444" />
&#10;					</g>
&#10;				</g>
&#10;			</g>
&#10;		</g>
&#10;		<g
   id="g457"
   style="stroke-width:0.226168">&#10;			<polygon
   style="fill:#263238;stroke-width:0.226168"
   points="52.626,445.594 50.005,438.158 58.54,438.158 56.099,441.876 56.579,445.594 "
   id="polygon447" />
&#10;			<g
   id="g456"
   style="stroke-width:0.226168">&#10;				<path
   style="fill:#263238;stroke-width:0.226168"
   d="m 60.248,447.846 c 0,3.009 -2.439,5.448 -5.448,5.448 -3.009,0 -5.449,-2.439 -5.449,-5.448 0,-3.009 2.439,-5.449 5.449,-5.449 3.008,0.001 5.448,2.44 5.448,5.449 z"
   id="path447" />
&#10;				<g
   id="g455"
   style="stroke-width:0.226168">&#10;					<path
   style="fill:#dbdbdb;stroke-width:0.226168"
   d="m 57.778,447.846 c 0,1.645 -1.333,2.978 -2.978,2.978 -1.645,0 -2.979,-1.333 -2.979,-2.978 0,-1.645 1.334,-2.978 2.979,-2.978 1.644,0 2.978,1.333 2.978,2.978 z"
   id="path448" />
&#10;					<g
   id="g454"
   style="stroke-width:0.226168">&#10;						<ellipse
   style="fill:#263238;stroke-width:0.226168"
   cx="54.744999"
   cy="446.04199"
   rx="0.115"
   ry="0.77499998"
   id="ellipse448" />
&#10;						<path
   style="fill:#263238;stroke-width:0.226168"
   d="m 53.566,446.528 c 0.303,0.303 0.512,0.584 0.467,0.629 -0.045,0.045 -0.327,-0.164 -0.629,-0.467 -0.303,-0.303 -0.511,-0.584 -0.466,-0.629 0.044,-0.045 0.326,0.164 0.628,0.467 z"
   id="path449" />
&#10;						<path
   style="fill:#263238;stroke-width:0.226168"
   d="m 52.995,447.786 c 0.428,0 0.775,0.051 0.775,0.115 0,0.064 -0.347,0.115 -0.775,0.115 -0.428,0 -0.775,-0.052 -0.775,-0.115 0,-0.064 0.347,-0.115 0.775,-0.115 z"
   id="path450" />
&#10;						<path
   style="fill:#263238;stroke-width:0.226168"
   d="m 53.481,449.079 c 0.303,-0.303 0.584,-0.512 0.629,-0.467 0.045,0.045 -0.164,0.327 -0.467,0.629 -0.303,0.303 -0.584,0.512 -0.629,0.467 -0.045,-0.044 0.164,-0.326 0.467,-0.629 z"
   id="path451" />
&#10;						<path
   style="fill:#263238;stroke-width:0.226168"
   d="m 54.739,449.65 c 0,-0.428 0.051,-0.775 0.115,-0.775 0.063,0 0.115,0.347 0.115,0.775 0,0.428 -0.052,0.775 -0.115,0.775 -0.064,0 -0.115,-0.347 -0.115,-0.775 z"
   id="path452" />
&#10;						<path
   style="fill:#263238;stroke-width:0.226168"
   d="m 56.032,449.165 c -0.303,-0.303 -0.512,-0.584 -0.467,-0.629 0.045,-0.045 0.327,0.164 0.629,0.467 0.303,0.303 0.512,0.584 0.467,0.629 -0.045,0.044 -0.326,-0.165 -0.629,-0.467 z"
   id="path453" />
&#10;						<ellipse
   style="fill:#263238;stroke-width:0.226168"
   cx="56.603001"
   cy="447.79199"
   rx="0.77499998"
   ry="0.115"
   id="ellipse453" />
&#10;						<path
   style="fill:#263238;stroke-width:0.226168"
   d="m 56.118,446.613 c -0.303,0.303 -0.584,0.512 -0.629,0.467 -0.045,-0.045 0.164,-0.327 0.467,-0.629 0.303,-0.303 0.584,-0.512 0.629,-0.467 0.044,0.045 -0.165,0.327 -0.467,0.629 z"
   id="path454" />
&#10;					</g>
&#10;				</g>
&#10;			</g>
&#10;		</g>
&#10;	</g>
&#10;</g>
    <g
       id="Character"
       transform="matrix(4.4408848,0,0,4.4021896,-37.384386,-63.986032)"
       style="stroke-width:0.226168">&#10;	<g
   id="g555"
   style="stroke-width:0.226168">&#10;		<g
   id="g554"
   style="stroke-width:0.226168">&#10;			<g
   id="g493"
   style="stroke-width:0.226168">&#10;				<g
   id="g473"
   style="stroke-width:0.226168">&#10;					<g
   id="g470"
   style="stroke-width:0.226168">&#10;						<g
   id="g459"
   style="stroke-width:0.226168">&#10;							<path
   style="fill:#ad6359;stroke-width:0.226168"
   d="m 182.078,460.08 c -2.318,0.29 -65.57,-14.467 -67.624,-16.457 -0.25,-0.22 2.741,-12.367 2.741,-12.367 0.993,-4.999 15.563,-45.792 15.563,-45.792 l 41.352,10.201 -15.621,37.812 c 0,0 7.884,5.335 14.659,10.422 0.007,0.011 0.016,0.013 0.015,0.022 4.184,3.123 7.794,5.934 8.57,6.855 2.009,2.409 2.659,9.032 0.345,9.304 z"
   id="path458" />
&#10;							<path
   style="fill:#ebebeb;stroke-width:0.226168"
   d="m 182.076,460.079 c -2.315,0.292 -65.566,-14.465 -67.62,-16.457 -0.25,-0.219 2.743,-12.368 2.743,-12.368 0.334,-1.637 2.326,-7.154 4.87,-13.829 l 39.577,9.229 -3.16,6.82 c 0,0 7.884,5.339 14.663,10.429 0.01,0.01 0.01,0.01 0.01,0.021 4.182,3.118 7.801,5.934 8.572,6.852 2.014,2.409 2.661,9.032 0.345,9.303 z"
   id="path459" />
&#10;						</g>
&#10;						<g
   id="g469"
   style="stroke-width:0.226168">&#10;							<path
   style="fill:#ffc727;stroke-width:0.226168"
   d="m 182.259,460.26 c -2.396,0.251 -66.159,-14.041 -68.238,-16.126 -0.804,-0.778 4.854,-21.319 4.878,-21.437 l 40.814,9.013 -0.173,0.694 c 0,0 20.508,15.722 22.555,18.256 2.028,2.521 2.559,9.36 0.164,9.6 z"
   id="path460" />
&#10;							<g
   id="g468"
   style="stroke-width:0.226168">&#10;								<g
   id="g467"
   style="stroke-width:0.226168">&#10;									<path
   style="fill:#263238;stroke-width:0.226168"
   d="m 182.093,457.629 c -10.689,-2.672 -54.055,-12.445 -64.825,-14.276 -0.088,-0.015 -0.101,0.044 -0.015,0.068 10.537,2.88 53.981,12.301 64.801,14.384 0.227,0.044 0.264,-0.119 0.039,-0.176 z"
   id="path461" />
&#10;									<path
   style="fill:#263238;stroke-width:0.226168"
   d="m 162.817,432.204 c -4.052,-1.736 -9.371,-2.247 -13.279,0.037 -0.151,0.089 -0.023,0.302 0.124,0.29 4.468,-0.378 8.554,-0.348 13.019,0.202 0.315,0.04 0.427,-0.405 0.136,-0.529 z"
   id="path462" />
&#10;									<path
   style="fill:#263238;stroke-width:0.226168"
   d="m 165.458,434.726 c -4.052,-1.736 -9.371,-2.247 -13.279,0.037 -0.152,0.088 -0.023,0.302 0.123,0.29 4.468,-0.378 8.555,-0.348 13.019,0.203 0.315,0.038 0.427,-0.406 0.137,-0.53 z"
   id="path463" />
&#10;									<path
   style="fill:#263238;stroke-width:0.226168"
   d="m 168.098,437.247 c -4.052,-1.736 -9.371,-2.247 -13.28,0.038 -0.151,0.088 -0.023,0.302 0.124,0.289 4.468,-0.378 8.555,-0.348 13.019,0.203 0.315,0.039 0.427,-0.405 0.137,-0.53 z"
   id="path464" />
&#10;									<g
   id="g466"
   style="stroke-width:0.226168">&#10;										<path
   style="fill:#263238;stroke-width:0.226168"
   d="m 170.388,424.224 c -1.148,-2.659 -4.474,-2.324 -6.573,-1.238 -3.398,1.759 -6.744,4.945 -8.688,8.215 -0.048,0.081 -0.001,0.146 0.066,0.175 -0.06,0.324 0.152,0.729 0.545,0.676 3.783,-0.509 7.89,-0.584 11.404,-2.237 2.05,-0.965 4.332,-3.076 3.246,-5.591 z m -9.074,5.886 c -1.854,0.295 -3.712,0.498 -5.555,0.862 1.699,-1.598 3.321,-3.261 5.18,-4.686 0.887,-0.68 1.812,-1.363 2.785,-1.916 1.515,-0.862 7.044,-2.178 5.257,2.289 -0.985,2.462 -5.457,3.099 -7.667,3.451 z"
   id="path465" />
&#10;										<path
   style="fill:#263238;stroke-width:0.226168"
   d="m 144.624,427.689 c 3.153,2.266 7.177,3.088 10.804,4.278 0.376,0.123 0.659,-0.237 0.659,-0.566 0.071,-0.015 0.128,-0.072 0.096,-0.159 -1.315,-3.57 -4.021,-7.313 -7.042,-9.661 -1.865,-1.45 -5.074,-2.385 -6.689,0.02 -1.527,2.274 0.332,4.766 2.172,6.088 z m -1.232,-3.439 c -0.941,-4.718 4.255,-2.416 5.587,-1.293 0.856,0.722 1.64,1.561 2.388,2.391 1.568,1.741 2.858,3.671 4.236,5.552 -1.745,-0.694 -3.535,-1.231 -5.304,-1.86 -2.108,-0.748 -6.389,-2.19 -6.907,-4.79 z"
   id="path466" />
&#10;									</g>
&#10;								</g>
&#10;							</g>
&#10;						</g>
&#10;					</g>
&#10;					<g
   id="g472"
   style="stroke-width:0.226168">&#10;						<path
   style="fill:#37474f;stroke-width:0.226168"
   d="m 161.722,432.057 -44.116,-9.877 c 0,0 36.382,-101.435 33.162,-105.704 -1.61,-2.135 -42.478,-2.762 -55.476,-13.774 -16.884,-14.305 -5.556,-36.161 -5.556,-36.161 l 45.641,-1.354 c 0,0 -0.55,9.534 1.23,10.97 1.174,0.958 55.558,5.528 61.53,23.855 7.323,22.474 -36.415,132.045 -36.415,132.045 z"
   id="path470" />
&#10;						<g
   id="g471"
   style="stroke-width:0.226168">&#10;							<path
   style="fill:#263238;stroke-width:0.226168"
   d="m 162.983,424.076 c -1.165,-0.487 -12.556,-3.719 -15.107,-4.371 -5.137,-1.314 -10.281,-2.608 -15.444,-3.819 -2.691,-0.631 -8.459,-2.005 -8.805,-1.977 -0.166,0.013 -0.18,0.232 -0.025,0.281 5.031,1.567 10.117,2.94 15.203,4.326 5.078,1.383 22.56,5.657 24.078,5.824 0.147,0.015 0.265,-0.195 0.1,-0.264 z"
   id="path471" />
&#10;						</g>
&#10;						<path
   style="fill:#263238;stroke-width:0.226168"
   d="m 158.575,312.698 c -0.918,-0.784 -2.295,-0.879 -3.445,-1.071 -6.589,-1.101 -13.175,-2.213 -19.764,-3.313 -6.166,-1.03 -12.363,-1.953 -18.5,-3.136 -5.081,-0.98 -10.249,-2.302 -14.644,-5.055 -4.401,-2.757 -7.441,-6.901 -8.975,-11.737 -1.534,-4.836 -1.643,-10.035 -1.161,-15.042 0.118,-1.225 0.343,-2.448 0.573,-3.658 0.018,-0.092 -0.13,-0.123 -0.146,-0.031 -1.671,9.346 -1.821,20.196 5.19,27.645 3.417,3.631 8.112,5.765 12.902,7.147 5.405,1.56 11.053,2.298 16.599,3.225 6.589,1.101 13.177,2.203 19.767,3.298 3.17,0.527 6.39,0.939 9.533,1.596 0.603,0.126 1.285,0.303 1.718,0.759 0.597,0.629 0.434,1.522 0.278,2.283 -0.318,1.552 -0.735,3.086 -1.182,4.608 -3.597,12.27 -27.868,87.849 -28.58,89.196 -0.075,0.142 0.148,0.252 0.226,0.112 6.045,-10.764 23.633,-73.01 27.624,-84.618 1.019,-2.965 1.96,-5.966 2.591,-9.034 0.227,-1.107 0.36,-2.351 -0.604,-3.174 z"
   id="path472" />
&#10;					</g>
&#10;				</g>
&#10;				<g
   id="g492"
   style="stroke-width:0.226168">&#10;					<g
   id="g484"
   style="stroke-width:0.226168">&#10;						<path
   style="fill:#ad6359;stroke-width:0.226168"
   d="m 269.169,460.758 c -2.213,0.745 -65.52,-0.147 -67.93,-1.689 -0.936,-0.891 -1.681,-8.985 -2.252,-19.059 l -10.891,-43.177 40.727,-0.337 11.925,42.882 c 0,0 8.79,3.661 16.444,7.299 0.009,0.009 0.019,0.009 0.019,0.019 4.723,2.229 8.821,4.265 9.765,5.014 2.449,1.96 4.406,8.322 2.193,9.048 z"
   id="path473" />
&#10;						<g
   id="g483"
   style="stroke-width:0.226168">&#10;							<path
   style="fill:#ffc727;stroke-width:0.226168"
   d="m 270.467,460.803 c -2.286,0.757 -67.635,0.443 -70.113,-1.148 -0.952,-0.588 -1.462,-10.1 -1.747,-21.61 -0.002,-0.12 -0.004,-0.241 -0.005,-0.361 l 42.162,-0.268 -0.02,0.715 c 0,0 24.96,11.293 27.502,13.329 2.522,2.03 4.508,8.596 2.221,9.343 z"
   id="path474" />
&#10;							<g
   id="g482"
   style="stroke-width:0.226168">&#10;								<g
   id="g481"
   style="stroke-width:0.226168">&#10;									<path
   style="fill:#263238;stroke-width:0.226168"
   d="m 269.74,458.27 c -11.014,-0.323 -55.47,-0.588 -66.383,-0.071 -0.089,0.004 -0.089,0.064 0,0.069 10.91,0.558 55.366,0.463 66.382,0.183 0.232,-0.007 0.233,-0.175 0.001,-0.181 z"
   id="path475" />
&#10;									<path
   style="fill:#263238;stroke-width:0.226168"
   d="m 245.456,437.56 c -4.331,-0.829 -9.636,-0.19 -12.963,2.879 -0.129,0.119 0.042,0.3 0.183,0.256 4.283,-1.326 8.281,-2.171 12.76,-2.588 0.316,-0.03 0.331,-0.488 0.02,-0.547 z"
   id="path476" />
&#10;									<path
   style="fill:#263238;stroke-width:0.226168"
   d="m 248.576,439.458 c -4.331,-0.829 -9.636,-0.19 -12.963,2.878 -0.129,0.119 0.042,0.3 0.183,0.257 4.283,-1.326 8.281,-2.17 12.76,-2.588 0.316,-0.03 0.33,-0.488 0.02,-0.547 z"
   id="path477" />
&#10;									<path
   style="fill:#263238;stroke-width:0.226168"
   d="m 251.696,441.356 c -4.331,-0.829 -9.636,-0.19 -12.963,2.879 -0.129,0.119 0.042,0.3 0.183,0.256 4.283,-1.326 8.281,-2.171 12.76,-2.588 0.316,-0.03 0.33,-0.488 0.02,-0.547 z"
   id="path478" />
&#10;									<g
   id="g480"
   style="stroke-width:0.226168">&#10;										<path
   style="fill:#263238;stroke-width:0.226168"
   d="m 251.138,428.145 c -1.692,-2.351 -4.869,-1.313 -6.686,0.197 -2.942,2.445 -5.526,6.274 -6.724,9.884 -0.029,0.089 0.03,0.143 0.101,0.156 0.011,0.329 0.305,0.68 0.678,0.544 3.586,-1.307 7.581,-2.259 10.659,-4.626 1.797,-1.381 3.573,-3.931 1.972,-6.155 z m -7.6,7.691 c -1.748,0.685 -3.519,1.281 -5.241,2.03 1.317,-1.925 2.544,-3.896 4.054,-5.686 0.721,-0.854 1.477,-1.718 2.309,-2.467 1.295,-1.166 6.413,-3.635 5.626,1.11 -0.433,2.616 -4.664,4.196 -6.748,5.013 z"
   id="path479" />
&#10;										<path
   style="fill:#263238;stroke-width:0.226168"
   d="m 226.717,437.043 c 3.565,1.538 7.673,1.48 11.471,1.866 0.394,0.04 0.592,-0.372 0.522,-0.694 0.066,-0.03 0.11,-0.098 0.06,-0.177 -2.05,-3.205 -5.497,-6.282 -8.951,-7.929 -2.133,-1.017 -5.468,-1.243 -6.529,1.45 -1.005,2.55 1.345,4.586 3.427,5.484 z m -1.942,-3.096 c -1.932,-4.407 3.637,-3.27 5.18,-2.458 0.991,0.522 1.937,1.173 2.846,1.825 1.905,1.365 3.579,2.974 5.33,4.516 -1.854,-0.304 -3.717,-0.446 -5.58,-0.681 -2.222,-0.281 -6.712,-0.773 -7.776,-3.202 z"
   id="path480" />
&#10;									</g>
&#10;								</g>
&#10;							</g>
&#10;						</g>
&#10;						<path
   style="fill:#ad6359;stroke-width:0.226168"
   d="M 199.072,445.634"
   id="path483" />
&#10;					</g>
&#10;					<g
   id="g491"
   style="stroke-width:0.226168">&#10;						<path
   style="fill:#37474f;stroke-width:0.226168"
   d="m 243.796,437.866 -47.524,-0.036 c 0,0 -20.341,-97.723 -23.941,-102.321 -4.799,-6.128 -71.955,-5.989 -86.36,-25.978 -12.937,-17.953 -2.017,-43.36 -2.017,-43.36 l 50.857,-1.509 c 0,0 -1.587,8.064 -4.714,15.994 0,0 61.264,11.291 78.427,30.058 11.583,12.666 35.272,127.152 35.272,127.152 z"
   id="path484" />
&#10;						<g
   id="g490"
   style="stroke-width:0.226168">&#10;							<path
   style="fill:#263238;stroke-width:0.226168"
   d="m 138.968,277.176 c -1.469,0.259 -2.919,0.852 -4.309,1.38 -1.46,0.556 -2.898,1.188 -4.303,1.871 -2.78,1.354 -5.431,2.902 -8.046,4.546 -0.081,0.051 -0.001,0.164 0.08,0.121 2.75,-1.427 5.593,-2.712 8.439,-3.937 1.369,-0.589 2.739,-1.177 4.108,-1.767 1.378,-0.594 2.846,-1.099 4.155,-1.834 0.174,-0.098 0.079,-0.416 -0.124,-0.38 z"
   id="path485" />
&#10;							<path
   style="fill:#263238;stroke-width:0.226168"
   d="m 135.92,264.64 c -0.582,2.318 -1.093,4.654 -1.757,6.952 -0.305,1.054 -0.605,2.126 -1.004,3.149 -0.337,0.863 -0.847,1.848 -1.847,2.041 -1.153,0.223 -1.482,-0.763 -1.388,-1.714 0.105,-1.061 0.376,-2.125 0.586,-3.168 0.242,-1.204 0.486,-2.407 0.705,-3.615 0.11,-0.604 0.224,-1.207 0.326,-1.813 0.026,-0.152 0.139,-1.309 0.222,-1.641 0.009,0.028 0.027,0.055 0.064,0.05 0.013,-0.002 0.027,-0.004 0.04,-0.006 0.031,-0.004 0.066,-0.025 0.071,-0.06 0.012,-0.091 0.011,-0.11 -0.058,-0.174 -0.03,-0.028 -0.072,-0.026 -0.106,-0.008 -0.22,0.121 -0.236,0.423 -0.307,0.645 -0.188,0.587 -0.378,1.172 -0.55,1.764 -0.321,1.106 -0.634,2.216 -0.916,3.333 -0.282,1.116 -0.556,2.234 -0.831,3.352 -0.206,0.836 -0.45,1.717 -0.224,2.576 0.247,0.938 0.997,1.411 1.823,1.483 -0.04,0.076 -0.088,0.148 -0.122,0.226 -0.101,0.228 -0.176,0.471 -0.262,0.706 -0.088,0.24 -0.168,0.479 -0.238,0.725 -0.033,0.116 -0.054,0.238 -0.067,0.358 -0.015,0.134 0.013,0.265 -0.005,0.4 -0.027,0.207 0.256,0.335 0.36,0.129 0.061,-0.119 0.149,-0.21 0.217,-0.324 0.071,-0.12 0.122,-0.258 0.166,-0.388 0.079,-0.232 0.146,-0.463 0.205,-0.701 0.059,-0.234 0.131,-0.47 0.174,-0.707 0.026,-0.141 0.031,-0.285 0.043,-0.427 0.472,-0.048 0.943,-0.21 1.339,-0.509 0.693,-0.523 1.098,-1.321 1.387,-2.118 0.35,-0.965 0.622,-1.964 0.893,-2.954 0.673,-2.449 1.245,-4.938 1.479,-7.47 0.026,-0.269 -0.349,-0.367 -0.418,-0.092 z"
   id="path486" />
&#10;							<g
   id="g487"
   style="stroke-width:0.226168">&#10;								<path
   style="fill:#263238;stroke-width:0.226168"
   d="m 238.877,429.358 c -1.249,-0.182 -2.548,-0.185 -3.809,-0.237 -1.337,-0.055 -2.675,-0.113 -4.012,-0.153 -2.633,-0.078 -5.265,-0.129 -7.898,-0.138 -5.303,-0.018 -10.608,-0.015 -15.91,0.07 -2.764,0.044 -8.693,0.12 -9.021,0.228 -0.158,0.052 -0.117,0.26 0.044,0.269 5.262,0.28 10.53,0.365 15.801,0.462 5.262,0.096 10.529,0.179 15.792,0.088 1.458,-0.025 2.913,-0.08 4.37,-0.118 1.525,-0.04 3.098,10e-4 4.611,-0.201 0.145,-0.019 0.209,-0.244 0.032,-0.27 z"
   id="path487" />
&#10;							</g>
&#10;							<path
   style="fill:#263238;stroke-width:0.226168"
   d="m 177.869,336.183 c -0.542,-1.387 -1.007,-2.935 -1.983,-4.091 -0.993,-1.176 -2.461,-1.612 -3.893,-2.004 -12.669,-3.467 -25.743,-5.024 -38.625,-7.46 -6.34,-1.199 -12.652,-2.612 -18.801,-4.579 -6.142,-1.965 -12.373,-4.448 -17.785,-8.001 -2.72,-1.786 -4.943,-4.067 -6.543,-6.908 -1.503,-2.669 -2.454,-5.639 -3.074,-8.629 -1.416,-6.834 -1.317,-14.036 0.047,-20.867 0.343,-1.717 0.779,-3.41 1.303,-5.081 0.033,-0.105 -0.128,-0.142 -0.164,-0.041 -2.351,6.647 -3.394,13.693 -2.863,20.735 0.46,6.112 1.941,12.544 5.892,17.393 1.99,2.442 4.576,4.224 7.309,5.741 2.887,1.603 5.891,2.996 8.957,4.22 5.976,2.385 12.186,4.122 18.463,5.51 12.851,2.843 25.965,4.285 38.813,7.143 1.585,0.353 3.166,0.727 4.74,1.127 1.527,0.389 3.314,0.66 4.667,1.504 1.523,0.95 2.027,2.843 2.627,4.423 0.662,1.742 21.321,88.681 21.786,90.438 0.075,0.284 0.507,0.152 0.436,-0.132 -1.802,-7.148 -19.969,-87.011 -21.309,-90.441 z"
   id="path488" />
&#10;							<path
   style="fill:#263238;stroke-width:0.226168"
   d="m 174.12,338.037 c -0.483,-1.525 -0.904,-3.164 -2.326,-4.091 -1.321,-0.862 -21.756,-3.65 -24.044,-4.003 -0.106,-0.016 -0.148,0.146 -0.041,0.164 1.96,0.331 20.741,3.696 22.42,4.254 0.7,0.232 1.375,0.589 1.832,1.184 0.564,0.733 0.796,1.683 1.071,2.549 0.578,1.819 8.07,33.281 9.146,37.489 0.082,0.321 0.541,0.167 0.484,-0.146 -1.428,-7.896 -7.939,-35.498 -8.542,-37.4 z"
   id="path489" />
&#10;							<path
   style="fill:#263238;stroke-width:0.226168"
   d="m 130.342,280.784 c 9.371,1.025 18.682,3.129 27.744,5.687 9.137,2.579 18.109,5.79 26.771,9.68 4.865,2.185 9.575,4.626 14.247,7.193 0.092,0.051 0.007,0.186 -0.086,0.138 -8.381,-4.363 -17.156,-8.125 -26.035,-11.352 -8.85,-3.217 -17.908,-5.863 -27.111,-7.862 -5.182,-1.126 -10.4,-2.002 -15.629,-2.87 -0.345,-0.058 -0.252,-0.652 0.099,-0.614 z"
   id="path490" />
&#10;						</g>
&#10;					</g>
&#10;				</g>
&#10;			</g>
&#10;			<g
   id="g553"
   style="stroke-width:0.226168">&#10;				<g
   id="g508"
   style="stroke-width:0.226168">&#10;					<g
   id="g503"
   style="stroke-width:0.226168">&#10;						<g
   id="g495"
   style="stroke-width:0.226168">&#10;							<path
   style="fill:#37474f;stroke-width:0.226168"
   d="m 176.233,178.42 -9.234,29.542 c -0.369,0.861 0.032,1.601 0.896,1.649 l 15.463,0.869 c 0.863,0.049 1.865,-0.612 2.234,-1.473 l 9.234,-29.542 c 0.37,-0.863 -0.032,-1.6 -0.895,-1.649 l -15.463,-0.869 c -0.864,-0.049 -1.865,0.61 -2.235,1.473 z"
   id="path493" />
&#10;							<path
   style="fill:#455a64;stroke-width:0.226168"
   d="m 178.069,178.507 -9.234,29.542 c -0.369,0.861 0.032,1.601 0.896,1.649 l 15.463,0.869 c 0.863,0.048 1.865,-0.612 2.234,-1.473 l 9.234,-29.542 c 0.37,-0.863 -0.032,-1.601 -0.895,-1.649 l -15.463,-0.869 c -0.864,-0.049 -1.865,0.61 -2.235,1.473 z"
   id="path494" />
&#10;							<path
   style="fill:#263238;stroke-width:0.226168"
   d="m 182.232,180.114 c -0.057,0.725 -0.69,1.266 -1.415,1.209 -0.725,-0.057 -1.266,-0.69 -1.209,-1.415 0.057,-0.724 0.69,-1.266 1.415,-1.209 0.724,0.057 1.265,0.691 1.209,1.415 z"
   id="path495" />
&#10;						</g>
&#10;						<path
   style="fill:#ad6359;stroke-width:0.226168"
   d="m 123.839,220.996 c 7.535,19.194 25.598,44.659 33.715,45.294 3.862,0.302 10.704,1.675 16.065,-2.436 11.699,-8.972 22.156,-26.907 24.734,-37.396 0.917,-3.731 -16.914,-13.102 -19.825,-10.205 -6.817,6.785 -15.118,20.427 -16.236,20.269 -4.138,-0.587 -19.518,-15.184 -30.247,-25.458 -13.025,-12.474 -11.208,2.282 -8.206,9.932 z"
   id="path496" />
&#10;						<g
   id="g502"
   style="stroke-width:0.226168">&#10;							<path
   style="fill:#ad6359;stroke-width:0.226168"
   d="m 200.077,206.982 c -1.445,-7.789 -3.012,-9.567 -0.74,-16.788 1.491,-4.739 -0.895,-7.724 -4.56,-4.082 -5.994,5.956 -6.241,16.397 -5.284,20.041 z"
   id="path497" />
&#10;							<g
   id="g498"
   style="stroke-width:0.226168">&#10;								<path
   style="fill:#ad6359;stroke-width:0.226168"
   d="m 197.243,229.686 c 0,0 4.116,-10.456 3.397,-18.909 -0.497,-5.845 -2.995,-18.442 -18.776,-26.031 -3.743,-1.8 -10.353,-1.71 -5.307,3.45 3.584,3.665 6.964,4.907 8.661,7.419 0,0 -8.394,1.112 -10.051,4.932 -0.74,1.707 -2.652,6.414 -3.618,10.291 0,0 0.788,0.438 1.865,0.85 0,0 -1.439,3.626 0.965,9.057 z"
   id="path498" />
&#10;							</g>
&#10;							<path
   style="fill:#ad6359;stroke-width:0.226168"
   d="m 199.275,205.274 c -2.211,-2.137 -6.973,-6.587 -12.134,-8.873 -5.733,-2.539 -17.461,-5.884 -19.292,-1.633 -1.342,3.117 3.023,4.788 3.023,4.788 0,0 -5.139,-0.361 -5.736,2.72 -0.544,2.808 2.911,3.898 2.911,3.898 0,0 -3.155,0.317 -3.158,3.122 -0.003,3.374 6.609,2.156 9.559,5.577 0.664,0.77 24.827,-9.599 24.827,-9.599 z"
   id="path499" />
&#10;							<g
   id="g500"
   style="stroke-width:0.226168">&#10;								<path
   style="fill:#263238;stroke-width:0.226168"
   d="m 185.469,202.906 c -2.409,-1.669 -8.852,-4.055 -14.493,-3.429 -0.128,0.014 -0.186,0.118 -0.066,0.13 6.357,0.63 12.131,2.438 14.535,3.353 0.032,0.013 0.051,-0.035 0.024,-0.054 z"
   id="path500" />
&#10;							</g>
&#10;							<g
   id="g501"
   style="stroke-width:0.226168">&#10;								<path
   style="fill:#263238;stroke-width:0.226168"
   d="m 182.738,208.619 c -2.226,-1.226 -8.977,-3.389 -14.671,-2.558 -0.127,0.019 -0.178,0.127 -0.058,0.134 6.669,0.384 12.255,1.71 14.709,2.48 0.032,0.01 0.049,-0.04 0.02,-0.056 z"
   id="path501" />
&#10;							</g>
&#10;						</g>
&#10;					</g>
&#10;					<g
   id="g507"
   style="stroke-width:0.226168">&#10;						<path
   style="fill:#ffc727;stroke-width:0.226168"
   d="m 198.346,236.292 c 0,0 -17.33,26.674 -26.294,29.543 -8.954,2.87 -14.158,1.756 -17.377,1.053 -0.946,-0.207 -2.071,-0.868 -3.331,-1.888 -8.406,-6.871 -22.729,-30.169 -28.316,-43.102 -4.191,-9.723 -3.097,-18.202 4.009,-14.985 1.769,0.794 3.911,2.323 6.444,4.742 12.662,12.106 27.514,23.82 28.277,23.481 0.763,-0.329 9.273,-12.035 9.273,-12.035 z"
   id="path503" />
&#10;						<path
   style="opacity:0.1;stroke-width:0.226168"
   d="m 151.343,265 c -8.406,-6.871 -22.729,-30.169 -28.316,-43.102 -4.191,-9.723 -3.097,-18.202 4.009,-14.985 3.24,7.633 17.375,41.037 24.307,58.087 z"
   id="path504" />
&#10;						<path
   style="fill:#263238;stroke-width:0.226168"
   d="m 193.581,239.992 c -0.96,-0.62 -10.154,-4.91 -12.171,-5.799 -2.018,-0.89 -10.231,-4.604 -12.386,-5.348 -0.096,-0.033 -0.159,0.092 -0.068,0.144 1.977,1.132 10.251,4.901 12.288,5.849 2.037,0.948 11.223,4.991 12.291,5.296 0.09,0.027 0.112,-0.099 0.046,-0.142 z"
   id="path505" />
&#10;						<g
   id="g506"
   style="stroke-width:0.226168">&#10;							<path
   style="fill:#263238;stroke-width:0.226168"
   d="m 161.758,235.136 c -0.755,1.178 -1.547,2.271 -2.35,3.371 -0.812,1.092 -1.611,2.186 -2.559,3.222 0.436,-1.337 1.145,-2.542 1.955,-3.667 0.835,-1.103 1.771,-2.156 2.954,-2.926 z"
   id="path506" />
&#10;						</g>
&#10;					</g>
&#10;				</g>
&#10;				<g
   id="g510"
   style="stroke-width:0.226168">&#10;					<path
   style="fill:#ebebeb;stroke-width:0.226168"
   d="m 140.301,276.039 c -1.441,1.397 -63.049,7.811 -63.353,7.398 -0.819,-1.119 10.694,-58.93 35.366,-78.851 4.348,-3.51 11.599,-2.037 14.882,0.074 1.64,1.055 6.182,9.353 7.486,16.737 1.293,7.374 6.525,53.752 5.619,54.642 z"
   id="path508" />
&#10;					<path
   style="fill:#ffc727;stroke-width:0.226168"
   d="m 113.93,203.143 c 0,0 6.721,34.931 6.941,36.354 0.22,1.423 -0.765,40.32 -0.765,40.32 l -45.749,5.649 c 0,0 5.172,-19.311 5.448,-20.237 0.276,-0.926 9.959,-32.977 20.379,-47.346 9.575,-13.205 13.746,-14.74 13.746,-14.74 z"
   id="path509" />
&#10;					<path
   style="fill:#ffc727;stroke-width:0.226168"
   d="m 128.139,205.172 c 0,0 4.616,30.991 4.75,32.945 0.134,1.954 3.622,39.647 3.622,39.647 l 5.649,-2.116 c 0,0 -3.151,-24.535 -3.522,-26.662 -0.371,-2.127 -2.999,-24.946 -3.986,-29.211 -1.562,-6.749 -6.513,-14.603 -6.513,-14.603 z"
   id="path510" />
&#10;				</g>
&#10;				<g
   id="g528"
   style="stroke-width:0.226168">&#10;					<g
   id="g511"
   style="stroke-width:0.226168">&#10;						<path
   style="fill:#ffc727;stroke-width:0.226168"
   d="m 111.788,204.652 c -24.581,9.406 -54.179,33.357 -53.54,42.425 0.712,10.1 36.008,-3.143 35.822,-4.669 -0.157,-1.296 8.004,-11.209 19.676,-25.414 11.872,-14.449 4.121,-14.668 -1.958,-12.342 z"
   id="path511" />
&#10;					</g>
&#10;					<g
   id="g527"
   style="stroke-width:0.226168">&#10;						<g
   id="g518"
   style="stroke-width:0.226168">&#10;							<path
   style="fill:#ad6359;stroke-width:0.226168"
   d="m 58.248,247.077 c 1.324,7.139 11.165,12.86 34.59,29.589 3.242,2.315 25.733,-16.166 22.398,-18.816 -4.2,-3.338 -21.222,-15.381 -22.578,-16.105 -11.437,-6.102 -35.308,0.489 -34.41,5.332 z"
   id="path512" />
&#10;							<g
   id="g517"
   style="stroke-width:0.226168">&#10;								<path
   style="fill:#ad6359;stroke-width:0.226168"
   d="m 110.626,254.338 c 0,0 10.146,6.6 14.403,11.717 5.7,6.853 7.801,15.115 8.472,18.631 1.401,7.339 -0.286,26.053 -5.761,26.507 -4.956,0.411 -2.265,-18.63 -2.265,-18.63 0,0 0.46,19.867 -5.598,19.265 -6.058,-0.602 -1.677,-22.528 -1.677,-22.528 0,0 0.015,20.423 -6.134,18.814 -4.647,-1.216 -1.798,-21.298 -1.798,-21.298 0,0 -0.108,17.554 -4.941,16.51 -5.34,-1.154 -3.873,-19.857 -3.873,-19.857 -11.838,-4.723 -15.542,-11.814 -17.577,-17.172 -0.492,-1.296 26.749,-11.959 26.749,-11.959 z"
   id="path513" />
&#10;								<g
   id="g516"
   style="stroke-width:0.226168">&#10;									<path
   style="fill:#263238;stroke-width:0.226168"
   d="m 125.756,285.682 c 0.138,2.332 0.294,4.691 0.225,7.027 -0.069,2.336 -0.22,4.672 -0.506,6.991 -0.703,5.688 -2.032,9.14 -1.973,8.918 1.393,-5.254 1.77,-13.613 1.839,-15.95 0.069,-2.331 0.255,-4.659 0.326,-6.992 0.002,-0.058 0.086,-0.049 0.089,0.006 z"
   id="path514" />
&#10;									<path
   style="fill:#263238;stroke-width:0.226168"
   d="m 117.326,285.279 c 0.048,2.985 0.205,5.947 0.121,8.935 -0.083,2.973 -0.423,5.787 -0.711,8.747 -0.022,0.228 -0.137,0.141 -0.124,-0.089 0.17,-2.969 0.097,-5.727 0.232,-8.698 0.134,-2.96 0.384,-5.938 0.411,-8.9 0,-0.046 0.07,-0.04 0.071,0.005 z"
   id="path515" />
&#10;									<path
   style="fill:#263238;stroke-width:0.226168"
   d="m 110.152,283.632 c 0.307,4.558 -0.227,9.167 -0.86,13.676 -0.031,0.225 -0.168,0.096 -0.149,-0.135 0.371,-4.541 0.695,-8.1 0.85,-13.53 0.003,-0.086 0.153,-0.107 0.159,-0.011 z"
   id="path516" />
&#10;								</g>
&#10;							</g>
&#10;						</g>
&#10;						<g
   id="g526"
   style="stroke-width:0.226168">&#10;							<g
   id="g519"
   style="stroke-width:0.226168">&#10;								<path
   style="fill:#ffc727;stroke-width:0.226168"
   d="m 115.907,255.489 c 0,0 -30.963,18.84 -31.257,18.697 -0.293,-0.143 -26.728,-19.632 -26.402,-27.109 0.326,-7.477 24.233,-10.598 34.394,-5.388 10.162,5.21 23.265,13.8 23.265,13.8 z"
   id="path518" />
&#10;								<path
   style="fill:#263238;stroke-width:0.226168"
   d="m 106.524,251.309 c -1.192,0.557 -11.009,6.904 -13.112,8.328 -2.104,1.425 -10.758,7.166 -12.804,8.814 -0.091,0.073 -0.008,0.211 0.099,0.155 2.315,-1.237 11.06,-7.004 13.233,-8.411 2.173,-1.408 11.744,-7.898 12.695,-8.753 0.081,-0.072 -0.029,-0.171 -0.111,-0.133 z"
   id="path519" />
&#10;							</g>
&#10;							<g
   id="g525"
   style="stroke-width:0.226168">&#10;								<path
   style="fill:#263238;stroke-width:0.226168"
   d="m 80.005,239.249 c 2.502,-0.132 9.333,0.011 14.539,3.343 0.058,0.037 0.021,0.112 -0.042,0.082 -4.555,-2.186 -12.025,-3.28 -14.485,-3.334 -0.065,-0.001 -0.075,-0.087 -0.012,-0.091 z"
   id="path520" />
&#10;								<g
   id="g523"
   style="stroke-width:0.226168">&#10;									<g
   id="g521"
   style="stroke-width:0.226168">&#10;										<path
   style="fill:#263238;stroke-width:0.226168"
   d="m 113.997,256.651 1.862,-1.242 -0.005,0.158 -5.403,-3.398 c -1.803,-1.128 -3.618,-2.236 -5.444,-3.323 -3.628,-2.213 -7.306,-4.343 -11.058,-6.318 l -0.496,-0.261 0.315,-0.454 c 2.605,-3.752 5.271,-7.446 8.112,-11.015 1.419,-1.784 2.87,-3.543 4.352,-5.274 1.507,-1.711 3.032,-3.405 4.634,-5.025 -2.898,3.514 -5.687,7.102 -8.388,10.757 -2.687,3.662 -5.372,7.336 -7.887,11.109 l -0.18,-0.715 c 3.77,2.015 7.431,4.211 11.032,6.493 1.787,1.164 3.56,2.347 5.319,3.549 1.766,1.192 3.483,2.457 5.2,3.719 l 0.12,0.089 -0.126,0.069 z"
   id="path521" />
&#10;									</g>
&#10;									<g
   id="g522"
   style="stroke-width:0.226168">&#10;										<path
   style="fill:#263238;stroke-width:0.226168"
   d="m 104.235,228.377 c 0.403,-0.4 0.802,-0.801 1.22,-1.178 0.411,-0.387 0.845,-0.745 1.279,-1.104 0.881,-0.701 1.783,-1.377 2.779,-1.939 -0.748,0.865 -1.594,1.611 -2.465,2.327 -0.442,0.349 -0.885,0.698 -1.354,1.014 -0.468,0.317 -0.932,0.646 -1.459,0.88 z"
   id="path522" />
&#10;									</g>
&#10;								</g>
&#10;								<g
   id="g524"
   style="stroke-width:0.226168">&#10;									<path
   style="fill:#263238;stroke-width:0.226168"
   d="m 76.207,267.642 c 1.544,0.92 3.001,1.94 4.421,3.01 0.707,0.538 1.41,1.082 2.099,1.644 l 2.082,1.675 -0.287,-0.018 c 0.869,-0.416 1.751,-0.809 2.654,-1.165 -0.781,0.576 -1.582,1.115 -2.396,1.631 l -0.133,0.084 -0.154,-0.102 c -0.743,-0.493 -1.495,-0.971 -2.197,-1.522 -0.711,-0.538 -1.41,-1.092 -2.104,-1.653 -1.382,-1.129 -2.727,-2.306 -3.985,-3.584 z"
   id="path523" />
&#10;								</g>
&#10;							</g>
&#10;						</g>
&#10;					</g>
&#10;				</g>
&#10;				<g
   id="g552"
   style="stroke-width:0.226168">&#10;					<g
   id="g549"
   style="stroke-width:0.226168">&#10;						<g
   id="g530"
   style="stroke-width:0.226168">&#10;							<g
   id="g529"
   style="stroke-width:0.226168">&#10;								<path
   style="fill:#ad6359;stroke-width:0.226168"
   d="m 125.669,214.369 c -3.582,0.626 -9.328,-5.124 -11.465,-9.635 -0.145,-0.31 1.81,-12.219 1.952,-14.619 0.027,-0.493 14.858,4.548 14.858,4.548 0,0 -1.78,4.943 -2.001,9.129 -0.016,0.35 0.118,9.97 -3.344,10.577 z"
   id="path528" />
&#10;							</g>
&#10;							<path
   style="fill:#263238;stroke-width:0.226168"
   d="m 131.019,194.659 c 0,0 0,0 -0.011,0.01 -0.023,0.072 -0.126,0.361 -0.276,0.826 -0.254,0.796 -0.649,2.087 -0.987,3.569 -0.348,1.481 -0.651,3.152 -0.731,4.725 -0.014,0.114 -0.007,0.229 -0.01,0.334 l -0.002,0.052 c 0.004,0.198 -0.004,0.459 -0.014,0.772 -0.45,0.038 -0.94,0.033 -1.471,-0.004 -8.191,-0.671 -10.357,-10.901 -10.893,-14.81 0.083,0.013 0.166,0.036 0.259,0.06 0.394,0.085 0.911,0.227 1.532,0.402 0.155,0.047 0.31,0.093 0.476,0.14 0.993,0.292 2.171,0.662 3.4,1.044 0.403,0.127 0.806,0.255 1.219,0.393 0.878,0.288 1.767,0.576 2.593,0.842 0.351,0.126 0.702,0.241 1.033,0.345 0.362,0.116 0.723,0.242 1.054,0.346 0.165,0.057 0.33,0.115 0.485,0.161 0.082,0.034 0.155,0.057 0.227,0.08 0.485,0.161 0.898,0.299 1.229,0.414 0.248,0.081 0.444,0.149 0.589,0.196 0.124,0.046 0.207,0.069 0.248,0.091 0.021,0.001 0.031,0.001 0.041,0.012 z"
   id="path529" />
&#10;						</g>
&#10;						<g
   id="g548"
   style="stroke-width:0.226168">&#10;							<g
   id="g531"
   style="stroke-width:0.226168">&#10;								<path
   style="fill:#ad6359;stroke-width:0.226168"
   d="m 115.116,174.082 c -1.653,5.341 1.119,20.797 4.914,24.253 5.503,5.011 14.539,5.518 18.811,-1.095 4.141,-6.41 0.171,-26.488 -4.071,-29.632 -6.248,-4.629 -17.212,-1.416 -19.654,6.474 z"
   id="path530" />
&#10;							</g>
&#10;							<g
   id="g541"
   style="stroke-width:0.226168">&#10;								<g
   id="g532"
   style="stroke-width:0.226168">&#10;									<path
   style="fill:#263238;stroke-width:0.226168"
   d="m 130.195,183.18 c -0.016,-0.038 -0.071,0.066 -0.061,0.108 0.244,1.03 0.351,2.251 -0.518,2.787 -0.027,0.017 -0.013,0.068 0.021,0.056 1.112,-0.394 0.954,-2.014 0.558,-2.951 z"
   id="path531" />
&#10;									<path
   style="fill:#263238;stroke-width:0.226168"
   d="m 129.048,182.286 c -1.694,0.213 -1.142,3.585 0.427,3.387 1.544,-0.194 0.992,-3.566 -0.427,-3.387 z"
   id="path532" />
&#10;								</g>
&#10;								<g
   id="g534"
   style="stroke-width:0.226168">&#10;									<path
   style="fill:#263238;stroke-width:0.226168"
   d="m 136.269,182.362 c 0.001,-0.042 0.09,0.036 0.096,0.079 0.138,1.05 0.472,2.229 1.474,2.421 0.031,0.006 0.037,0.059 0.001,0.059 -1.18,0.028 -1.609,-1.542 -1.571,-2.559 z"
   id="path533" />
&#10;									<path
   style="fill:#263238;stroke-width:0.226168"
   d="m 137.023,181.119 c 1.659,-0.402 2.342,2.945 0.805,3.318 -1.513,0.367 -2.195,-2.981 -0.805,-3.318 z"
   id="path534" />
&#10;								</g>
&#10;								<path
   style="fill:#263238;stroke-width:0.226168"
   d="m 127.575,180.921 c 0.458,-0.141 0.858,-0.349 1.297,-0.535 0.495,-0.211 0.911,-0.328 1.218,-0.798 0.164,-0.252 0.068,-0.684 -0.162,-0.867 -0.536,-0.426 -1.206,-0.319 -1.813,-0.089 -0.658,0.249 -1.102,0.609 -1.454,1.217 -0.342,0.588 0.309,1.259 0.914,1.072 z"
   id="path535" />
&#10;								<path
   style="fill:#263238;stroke-width:0.226168"
   d="m 138.068,179.064 c -0.48,0 -0.923,-0.08 -1.397,-0.129 -0.536,-0.055 -0.967,-0.044 -1.4,-0.402 -0.232,-0.193 -0.267,-0.634 -0.101,-0.877 0.386,-0.565 1.058,-0.66 1.706,-0.62 0.702,0.043 1.233,0.257 1.749,0.733 0.5,0.462 0.076,1.295 -0.557,1.295 z"
   id="path536" />
&#10;								<path
   style="fill:#263238;stroke-width:0.226168"
   d="m 130.815,193.033 c 0.29,0.204 0.595,0.5 0.979,0.469 0.368,-0.029 0.768,-0.263 1.08,-0.447 0.031,-0.018 0.07,0.012 0.054,0.046 -0.206,0.445 -0.735,0.79 -1.233,0.784 -0.486,-0.005 -0.787,-0.376 -0.973,-0.789 -0.026,-0.058 0.05,-0.093 0.093,-0.063 z"
   id="path537" />
&#10;								<g
   id="g539"
   style="stroke-width:0.226168">&#10;									<g
   id="g538"
   style="stroke-width:0.226168">&#10;										<path
   style="fill:#263238;stroke-width:0.226168"
   d="m 131.401,189.726 c 0.733,0.811 1.673,1.166 2.632,1.194 0.429,0.015 0.868,-0.042 1.289,-0.151 0.084,-0.016 0.167,-0.039 0.24,-0.068 0.075,-0.022 0.142,-0.042 0.223,-0.073 0.119,-0.038 0.17,-0.149 0.171,-0.268 l -10e-4,-0.008 c -0.007,-0.038 -0.012,-0.069 -0.027,-0.105 0,0 0,0 -0.001,-0.008 l -0.017,-0.091 c -0.11,-0.808 -0.388,-2.018 -0.388,-2.018 0.318,0.099 1.926,0.528 1.834,0.111 -0.777,-3.444 -1.64,-7.274 -3.14,-10.537 -0.044,-0.11 -0.215,-0.055 -0.186,0.058 0.615,3.34 1.814,6.548 2.486,9.893 -0.508,-0.103 -1.343,-0.312 -1.762,-0.235 -0.109,0.052 0.579,2.329 0.6,2.696 0,0 0.003,0.015 -0.001,0.039 -1.323,0.394 -2.408,0.152 -3.868,-0.54 -0.089,-0.046 -0.16,0.038 -0.084,0.111 z"
   id="path538" />
&#10;									</g>
&#10;								</g>
&#10;								<g
   id="g540"
   style="stroke-width:0.226168">&#10;									<path
   style="fill:#263238;stroke-width:0.226168"
   d="m 134.782,190.439 c 0,0 -0.556,1.079 -1.475,1.586 -0.339,0.188 -0.718,0.302 -1.141,0.26 -0.87,-0.083 -1.016,-0.845 -0.97,-1.525 0.036,-0.559 0.21,-1.064 0.21,-1.064 0,0 1.403,0.942 3.376,0.743 z"
   id="path539" />
&#10;									<path
   style="fill:#ff9abb;stroke-width:0.226168"
   d="m 133.306,192.025 c -0.339,0.188 -0.718,0.302 -1.141,0.26 -0.87,-0.083 -1.016,-0.845 -0.97,-1.525 0.909,-0.054 1.893,0.408 2.111,1.265 z"
   id="path540" />
&#10;								</g>
&#10;							</g>
&#10;							<path
   style="fill:#263238;stroke-width:0.226168"
   d="m 140.548,187.831 c 0,0 -0.395,7.661 -4.281,7.908 -2.319,0.147 -3.846,-2.078 -3.846,-2.078 l -1.284,-0.011 c 0,0 -1.93,4.459 -6.049,2.63 -4.451,-1.976 -6.255,-13.945 -6.255,-13.945 0,0 -1.108,5.406 -3.438,5.61 0,0 0.118,2.385 1.448,7.892 0.906,3.751 6.377,9.701 14.965,9.352 3.603,-0.146 8.412,-5.348 8.782,-9.186 0.432,-4.478 -0.042,-8.172 -0.042,-8.172 z"
   id="path541" />
&#10;							<g
   id="g545"
   style="stroke-width:0.226168">&#10;								<path
   style="fill:#263238;stroke-width:0.226168"
   d="m 117.107,185.682 c 2.45,-0.041 2.689,-5.653 2.689,-5.653 0,0 6.155,1.541 6.018,-6.647 0,0 7.244,2.164 11.614,-0.373 3.736,-2.169 5.565,-8.682 2.659,-12.429 -1.639,-2.113 -6.099,-3.96 -12.515,2.606 0,0 -8.751,-5.647 -11.639,4.789 0,0 -4.42,0.672 -4.821,5.002 -0.634,6.833 3.878,12.741 5.995,12.705 z"
   id="path542" />
&#10;								<path
   style="fill:#263238;stroke-width:0.226168"
   d="m 125.793,172.807 c -0.032,-0.079 -0.147,-0.047 -0.128,0.038 0.442,1.983 0.897,4.139 -0.631,5.794 -1.485,1.609 -3.712,2.149 -5.703,1.174 -0.115,-0.057 -0.214,0.118 -0.098,0.174 1.888,0.911 4.147,0.61 5.732,-0.795 1.896,-1.68 1.692,-4.227 0.828,-6.385 z"
   id="path543" />
&#10;								<path
   style="fill:#263238;stroke-width:0.226168"
   d="m 117.253,184.413 c -3.425,-1.634 -6.077,-4.41 -6.481,-8.347 -0.192,-1.873 0.077,-3.832 1.211,-5.361 1.036,-1.397 2.63,-1.945 4.05,-2.824 0.04,-0.025 0.013,-0.089 -0.033,-0.076 -8.877,2.536 -6.68,14.477 1.084,17.028 0.244,0.081 0.404,-0.309 0.169,-0.42 z"
   id="path544" />
&#10;								<path
   style="fill:#263238;stroke-width:0.226168"
   d="m 141.216,160.618 c -3.9,-5.189 -11.179,-1.387 -13.89,2.984 -0.01,0.016 0.015,0.035 0.026,0.02 2.477,-3.3 7.749,-6.626 11.77,-4.199 4.856,2.931 3.151,11.626 -2.32,12.624 -0.165,0.03 -0.123,0.312 0.045,0.294 5.054,-0.544 7.269,-7.866 4.369,-11.723 z"
   id="path545" />
&#10;							</g>
&#10;							<g
   id="g547"
   style="stroke-width:0.226168">&#10;								<path
   style="fill:#ad6359;stroke-width:0.226168"
   d="m 118.523,186.668 c 0,0 -3.579,-4.936 -5.828,-3.652 -2.249,1.283 0.5,8.478 3.181,9.424 2.68,0.946 3.606,-1.515 3.606,-1.515 z"
   id="path546" />
&#10;								<path
   style="fill:#263238;stroke-width:0.226168"
   d="m 113.535,185.058 c -0.043,-0.003 -0.05,0.057 -0.013,0.072 1.881,0.724 2.892,2.438 3.611,4.219 -0.567,-0.681 -1.329,-1.047 -2.245,-0.371 -0.048,0.035 0,0.111 0.052,0.099 0.763,-0.176 1.317,-0.053 1.844,0.55 0.373,0.427 0.632,0.971 0.903,1.467 0.09,0.165 0.39,0.071 0.323,-0.12 -0.005,-0.014 -0.011,-0.029 -0.016,-0.043 0.008,-2.378 -1.898,-5.676 -4.459,-5.873 z"
   id="path547" />
&#10;							</g>
&#10;						</g>
&#10;					</g>
&#10;					<g
   id="g551"
   style="stroke-width:0.226168">&#10;						<g
   id="g550"
   style="stroke-width:0.226168">&#10;							<path
   style="fill:#ebebeb;stroke-width:0.226168"
   d="m 129.039,205.059 -3.983,8.815 -10.662,-11.82 -3.312,3.507 c 0,0 10.135,18.49 10.238,17.678 l 4.024,-7.573 5.107,5.604 0.14,-13.519 z"
   id="path549" />
&#10;							<path
   style="fill:#263238;stroke-width:0.226168"
   d="m 130.899,214.592 c -0.052,-2.233 -0.041,-4.483 -0.196,-6.711 -0.006,-0.079 -0.127,-0.12 -0.15,-0.028 -0.538,2.131 -0.295,10.669 -0.391,12.71 -0.007,-0.008 -0.016,-0.016 -0.023,-0.024 -0.212,-0.242 -4.744,-4.942 -4.794,-4.872 -0.854,1.193 -3.805,6.707 -4.012,7.211 -1.602,-2.937 -7.767,-13.627 -9.692,-16.421 -0.055,-0.08 -0.178,-0.021 -0.137,0.071 1.394,3.089 9.542,17.478 9.678,17.444 0.089,0.075 3.754,-6.715 4.212,-8.008 0.757,1.014 5.308,6.294 5.339,5.964 0.204,-2.23 0.217,-5.1 0.166,-7.336 z"
   id="path550" />
&#10;						</g>
&#10;					</g>
&#10;				</g>
&#10;			</g>
&#10;		</g>
&#10;	</g>
&#10;</g>
    <g
       id="Speech_Bubble"
       transform="matrix(4.4408848,0,0,4.4021896,134.84877,-59.597084)"
       style="stroke-width:0.226168">&#10;	<g
   id="g557"
   style="stroke-width:0.226168">&#10;		<g
   id="g556"
   style="stroke-width:0.226168">&#10;			<path
   style="fill:#ffffff;stroke-width:0.226168"
   d="m 188.799,151.885 c -1.146,10.957 -10.963,18.915 -21.92,17.769 -4.428,-0.463 -8.365,-2.343 -11.413,-5.15 l -9.981,1.465 4.994,-8.629 c -1.212,-2.948 -1.722,-6.229 -1.369,-9.606 1.146,-10.957 10.963,-18.914 21.92,-17.768 10.957,1.146 18.915,10.962 17.769,21.919 z"
   id="path555" />
&#10;			<path
   style="fill:#263238;stroke-width:0.226168"
   d="m 188.799,151.885 c -0.417,3.643 -1.749,7.212 -4.027,10.113 -0.523,0.76 -1.197,1.395 -1.808,2.082 -0.693,0.604 -1.34,1.266 -2.105,1.783 -1.459,1.124 -3.099,2.005 -4.813,2.68 -1.706,0.718 -3.541,1.061 -5.371,1.281 -0.923,0.05 -1.847,0.134 -2.772,0.053 -0.926,-0.021 -1.849,-0.12 -2.761,-0.287 -3.651,-0.661 -7.108,-2.37 -9.87,-4.873 l 0.236,0.073 -9.971,1.531 -0.724,0.111 0.366,-0.638 4.964,-8.646 -0.023,0.341 c -2.418,-5.695 -1.873,-12.476 1.229,-17.781 1.546,-2.657 3.703,-4.946 6.248,-6.653 2.544,-1.712 5.494,-2.786 8.514,-3.195 3.023,-0.401 6.134,-0.126 9.021,0.834 2.883,0.971 5.527,2.604 7.694,4.718 4.407,4.185 6.621,10.466 5.973,16.473 z m 0,0 c 0.606,-6.012 -1.652,-12.256 -6.058,-16.386 -2.188,-2.066 -4.836,-3.631 -7.694,-4.539 -2.862,-0.896 -5.924,-1.109 -8.873,-0.665 -2.946,0.452 -5.8,1.549 -8.239,3.255 -2.434,1.709 -4.486,3.944 -5.969,6.511 -1.512,2.561 -2.295,5.496 -2.532,8.442 -0.187,2.956 0.296,5.947 1.404,8.691 l 0.072,0.178 -0.095,0.163 -5.023,8.611 -0.357,-0.527 9.99,-1.399 0.138,-0.019 0.098,0.092 c 2.641,2.479 5.983,4.209 9.553,4.921 0.892,0.18 1.797,0.293 2.707,0.329 0.909,0.096 1.819,0.029 2.73,-0.004 1.807,-0.186 3.628,-0.492 5.328,-1.173 1.707,-0.639 3.358,-1.478 4.812,-2.594 0.765,-0.508 1.412,-1.163 2.107,-1.759 0.612,-0.679 1.288,-1.307 1.815,-2.061 2.289,-2.874 3.644,-6.427 4.086,-10.067 z"
   id="path556" />
&#10;		</g>
&#10;		<polygon
   style="fill:#ffc727;stroke-width:0.226168"
   points="158.1,152.562 160.962,149.734 165.94,154.772 176.281,138.56 179.675,140.723 166.621,161.187 "
   id="polygon556" />
&#10;	</g>
&#10;</g>
  </g>
</svg>
